<svg width="24" height="24" viewBox="0 0 24 24" fill="none" xmlns="http://www.w3.org/2000/svg">
<path d="M7.82484 12.9999L12.7248 17.8999C12.9248 18.0999 13.0208 18.3333 13.0128 18.5999C13.0048 18.8666 12.9005 19.0999 12.6998 19.2999C12.4998 19.4833 12.2665 19.5793 11.9998 19.5879C11.7332 19.5966 11.4998 19.5006 11.2998 19.2999L4.69984 12.6999C4.59984 12.5999 4.52884 12.4916 4.48684 12.3749C4.44484 12.2583 4.42451 12.1333 4.42584 11.9999C4.42718 11.8666 4.44818 11.7416 4.48884 11.6249C4.52951 11.5083 4.60018 11.3999 4.70084 11.2999L11.3008 4.69993C11.4842 4.51659 11.7135 4.42493 11.9888 4.42493C12.2642 4.42493 12.5015 4.51659 12.7008 4.69993C12.9008 4.89993 13.0008 5.13759 13.0008 5.41293C13.0008 5.68826 12.9008 5.92559 12.7008 6.12493L7.82484 10.9999H18.9998C19.2832 10.9999 19.5208 11.0959 19.7128 11.2879C19.9048 11.4799 20.0005 11.7173 19.9998 11.9999C19.9992 12.2826 19.9032 12.5203 19.7118 12.7129C19.5205 12.9056 19.2832 13.0013 18.9998 12.9999H7.82484Z" fill="white"/>
</svg>
