<svg width="17" height="17" viewBox="0 0 17 17" fill="none" xmlns="http://www.w3.org/2000/svg">
<path d="M7.34615 6.5C7.34615 6.42422 7.31576 6.35155 7.26167 6.29797C7.20757 6.24439 7.1342 6.21429 7.05769 6.21429C6.98119 6.21429 6.90782 6.24439 6.85372 6.29797C6.79962 6.35155 6.76923 6.42422 6.76923 6.5V12.7857C6.76923 12.8615 6.79962 12.9342 6.85372 12.9877C6.90782 13.0413 6.98119 13.0714 7.05769 13.0714C7.1342 13.0714 7.20757 13.0413 7.26167 12.9877C7.31576 12.9342 7.34615 12.8615 7.34615 12.7857V6.5ZM9.94231 6.21429C10.0188 6.21429 10.0922 6.24439 10.1463 6.29797C10.2004 6.35155 10.2308 6.42422 10.2308 6.5V12.7857C10.2308 12.8615 10.2004 12.9342 10.1463 12.9877C10.0922 13.0413 10.0188 13.0714 9.94231 13.0714C9.8658 13.0714 9.79243 13.0413 9.73833 12.9877C9.68424 12.9342 9.65385 12.8615 9.65385 12.7857V6.5C9.65385 6.42422 9.68424 6.35155 9.73833 6.29797C9.79243 6.24439 9.8658 6.21429 9.94231 6.21429ZM11.0962 3.07143V3.35714H15.7115C15.788 3.35714 15.8614 3.38724 15.9155 3.44083C15.9696 3.49441 16 3.56708 16 3.64286C16 3.71863 15.9696 3.79131 15.9155 3.84489C15.8614 3.89847 15.788 3.92857 15.7115 3.92857H14.2444L13.3052 14.1611C13.2466 14.8003 12.9488 15.3946 12.4704 15.8274C11.9919 16.2601 11.3674 16.5001 10.7194 16.5H6.28058C5.63264 16.5001 5.0081 16.2601 4.52964 15.8274C4.05119 15.3946 3.75341 14.8003 3.69481 14.1611L2.75558 3.92857H1.28846C1.21196 3.92857 1.13859 3.89847 1.08449 3.84489C1.03039 3.79131 1 3.71863 1 3.64286C1 3.56708 1.03039 3.49441 1.08449 3.44083C1.13859 3.38724 1.21196 3.35714 1.28846 3.35714H5.90385V3.07143C5.90385 2.38944 6.17737 1.73539 6.66424 1.25315C7.15112 0.770918 7.81146 0.5 8.5 0.5C9.18854 0.5 9.84888 0.770918 10.3358 1.25315C10.8226 1.73539 11.0962 2.38944 11.0962 3.07143ZM6.48077 3.07143V3.35714H10.5192V3.07143C10.5192 2.541 10.3065 2.03229 9.92781 1.65722C9.54913 1.28214 9.03553 1.07143 8.5 1.07143C7.96447 1.07143 7.45087 1.28214 7.07219 1.65722C6.69351 2.03229 6.48077 2.541 6.48077 3.07143ZM3.33538 3.92857L4.27 14.1097C4.31562 14.6066 4.54709 15.0686 4.91897 15.4051C5.29085 15.7416 5.77629 15.9283 6.28 15.9286H10.7188C11.2228 15.9286 11.7085 15.7421 12.0806 15.4055C12.4527 15.069 12.6844 14.6068 12.73 14.1097L13.6652 3.92857H3.33538Z" fill="black" stroke="black" stroke-width="0.4"/>
</svg>
