<svg width="11" height="10" viewBox="0 0 11 10" fill="none" xmlns="http://www.w3.org/2000/svg">
<path d="M5.34394 0.364332C5.39551 0.254984 5.47536 0.162904 5.57443 0.0985148C5.67351 0.0341259 5.78786 0 5.90454 0C6.02122 0 6.13557 0.0341259 6.23465 0.0985148C6.33372 0.162904 6.41357 0.254984 6.46515 0.364332L7.67135 2.91741L10.3694 3.32747C10.4848 3.34498 10.5933 3.3959 10.6824 3.47445C10.7716 3.55301 10.838 3.65607 10.874 3.77198C10.91 3.88789 10.9143 4.01202 10.8863 4.13032C10.8583 4.24863 10.7992 4.35639 10.7156 4.44142L8.76319 6.42903L9.22442 9.23677C9.24411 9.35685 9.23126 9.48029 9.18731 9.59314C9.14336 9.70598 9.07007 9.80373 8.97572 9.87533C8.88138 9.94693 8.76974 9.98953 8.65344 9.9983C8.53713 10.0071 8.42079 9.98168 8.31758 9.92499L5.90517 8.59948L3.4915 9.92499C3.38826 9.98156 3.27193 10.0068 3.15565 9.99795C3.03938 9.98907 2.9278 9.94638 2.83353 9.87472C2.73926 9.80306 2.66606 9.70528 2.62219 9.59243C2.57832 9.47958 2.56554 9.35616 2.58529 9.23611L3.04589 6.42903L1.09347 4.44142C1.0099 4.35639 0.950785 4.24863 0.922798 4.13032C0.894811 4.01202 0.899071 3.88789 0.935098 3.77198C0.971124 3.65607 1.03748 3.55301 1.12666 3.47445C1.21583 3.3959 1.32427 3.34498 1.4397 3.32747L4.13773 2.91806L5.34394 0.363679V0.364332Z" fill="url(#paint0_linear_411_8096)"/>
<defs>
<linearGradient id="paint0_linear_411_8096" x1="0.904541" y1="0.456768" x2="10.9045" y2="9.54323" gradientUnits="userSpaceOnUse">
<stop stop-color="#FF9537"/>
<stop offset="1" stop-color="#FF7600"/>
</linearGradient>
</defs>
</svg>
