<svg width="61" height="60" viewBox="0 0 61 60" fill="none" xmlns="http://www.w3.org/2000/svg">
<g filter="url(#filter0_di_803_1583)">
<rect x="2.30005" y="2" width="56" height="56" rx="28" fill="url(#paint0_linear_803_1583)"/>
<path d="M30 28C32.2091 28 34 26.2091 34 24C34 21.7909 32.2091 20 30 20C27.7909 20 26 21.7909 26 24C26 26.2091 27.7909 28 30 28Z" stroke="white" stroke-width="1.75"/>
<path d="M38 35.5C38 37.985 38 40 30 40C22 40 22 37.985 22 35.5C22 33.015 25.582 31 30 31C34.418 31 38 33.015 38 35.5Z" stroke="white" stroke-width="1.75"/>
</g>
<defs>
<filter id="filter0_di_803_1583" x="0.300049" y="0" width="60" height="60" filterUnits="userSpaceOnUse" color-interpolation-filters="sRGB">
<feFlood flood-opacity="0" result="BackgroundImageFix"/>
<feColorMatrix in="SourceAlpha" type="matrix" values="0 0 0 0 0 0 0 0 0 0 0 0 0 0 0 0 0 0 127 0" result="hardAlpha"/>
<feOffset/>
<feGaussianBlur stdDeviation="1"/>
<feColorMatrix type="matrix" values="0 0 0 0 0.0901961 0 0 0 0 0.101961 0 0 0 0 0.121569 0 0 0 0.12 0"/>
<feBlend mode="normal" in2="BackgroundImageFix" result="effect1_dropShadow_803_1583"/>
<feBlend mode="normal" in="SourceGraphic" in2="effect1_dropShadow_803_1583" result="shape"/>
<feColorMatrix in="SourceAlpha" type="matrix" values="0 0 0 0 0 0 0 0 0 0 0 0 0 0 0 0 0 0 127 0" result="hardAlpha"/>
<feOffset dy="-2"/>
<feGaussianBlur stdDeviation="2"/>
<feComposite in2="hardAlpha" operator="arithmetic" k2="-1" k3="1"/>
<feColorMatrix type="matrix" values="0 0 0 0 0.0901961 0 0 0 0 0.101961 0 0 0 0 0.121569 0 0 0 0.25 0"/>
<feBlend mode="normal" in2="shape" result="effect2_innerShadow_803_1583"/>
</filter>
<linearGradient id="paint0_linear_803_1583" x1="2.30005" y1="4.5579" x2="58.3" y2="55.4421" gradientUnits="userSpaceOnUse">
<stop stop-color="#FF9537"/>
<stop offset="1" stop-color="#FF7600"/>
</linearGradient>
</defs>
</svg>
