<svg width="25" height="24" viewBox="0 0 25 24" fill="none" xmlns="http://www.w3.org/2000/svg">
<path d="M3.94631 10.1344L2.70151 21.3344L4.29191 21.512L5.53671 10.3104L3.94631 10.1344ZM5.08711 24H20.7127V22.4H5.08711V24ZM23.0983 21.3344L21.8535 10.1344L20.2631 10.3104L21.5079 21.512L23.0983 21.3344ZM19.4663 8H6.33351V9.6H19.4695L19.4663 8ZM21.8535 10.1344C21.7882 9.54744 21.5087 9.00518 21.0685 8.61139C20.6284 8.2176 20.0569 7.99992 19.4663 8L19.4679 9.6C19.6649 9.59999 19.8549 9.67262 20.0016 9.804C20.1483 9.93537 20.2414 10.1163 20.2631 10.312L21.8535 10.1344ZM20.7127 24C21.0502 23.9998 21.3838 23.9285 21.6919 23.7906C21.9999 23.6528 22.2754 23.4515 22.5004 23.1999C22.7253 22.9484 22.8947 22.6522 22.9975 22.3308C23.1003 22.0093 23.1357 21.6698 23.0983 21.3344L21.5079 21.512C21.5205 21.6239 21.5094 21.7357 21.4752 21.843C21.4409 21.9503 21.3845 22.0492 21.3094 22.1332C21.2343 22.2171 21.1424 22.2843 21.0395 22.3303C20.9367 22.3763 20.8253 22.4 20.7127 22.4V24ZM2.70151 21.3344C2.66415 21.6699 2.698 22.0096 2.80085 22.3311C2.9037 22.6527 3.07324 22.949 3.29839 23.2005C3.52353 23.4521 3.79923 23.6533 4.10745 23.7911C4.41568 23.9289 4.7495 24 5.08711 24V22.4C4.97462 22.4 4.8634 22.3763 4.7607 22.3304C4.658 22.2845 4.56613 22.2175 4.49109 22.1337C4.41605 22.0499 4.35952 21.9512 4.3252 21.8441C4.29088 21.737 4.27954 21.6238 4.29191 21.512L2.70151 21.3344ZM5.53671 10.3104C5.55874 10.1149 5.65201 9.93444 5.7987 9.8034C5.94538 9.67235 6.13681 9.59994 6.33351 9.6V8C5.7432 8.00031 5.1721 8.21817 4.7323 8.61192C4.2925 9.00568 4.01164 9.54771 3.94631 10.1344L5.53671 10.3104ZM8.89991 6.4V5.6H7.29991V6.4H8.89991ZM16.8999 5.6V6.4H18.4999V5.6H16.8999ZM12.8999 1.6C13.9608 1.6 14.9782 2.02143 15.7283 2.77157C16.4785 3.52172 16.8999 4.53913 16.8999 5.6H18.4999C18.4999 4.11479 17.9099 2.69041 16.8597 1.6402C15.8095 0.589998 14.3851 0 12.8999 0V1.6ZM8.89991 5.6C8.89991 4.53913 9.32134 3.52172 10.0715 2.77157C10.8216 2.02143 11.839 1.6 12.8999 1.6V0C11.4147 0 9.99032 0.589998 8.94011 1.6402C7.88991 2.69041 7.29991 4.11479 7.29991 5.6H8.89991Z" fill="#7C7979"/>
</svg>
