<svg width="24" height="25" viewBox="0 0 24 25" fill="none" xmlns="http://www.w3.org/2000/svg">
<path d="M12.832 22.3012C15.958 21.6752 20 19.4262 20 13.6112C20 8.32017 16.127 4.79617 13.342 3.17717C12.723 2.81717 12 3.29018 12 4.00517V5.83318C12 7.27518 11.394 9.90718 9.71 11.0022C8.85 11.5612 7.92 10.7242 7.816 9.70418L7.73 8.86618C7.63 7.89218 6.638 7.30118 5.86 7.89517C4.461 8.96018 3 10.8302 3 13.6102C3 20.7212 8.289 22.5002 10.933 22.5002C11.0877 22.5002 11.249 22.4952 11.417 22.4852C10.111 22.3742 8 21.5642 8 18.9442C8 16.8942 9.495 15.5092 10.631 14.8342C10.937 14.6542 11.294 14.8892 11.294 15.2442V15.8342C11.294 16.2842 11.469 16.9892 11.884 17.4712C12.354 18.0172 13.043 17.4452 13.098 16.7272C13.116 16.5012 13.344 16.3572 13.54 16.4712C14.181 16.8462 15 17.6462 15 18.9442C15 20.9922 13.871 21.9342 12.832 22.3012Z" fill="url(#paint0_linear_465_3268)"/>
<defs>
<linearGradient id="paint0_linear_465_3268" x1="3" y1="3.94196" x2="22.0291" y2="19.0574" gradientUnits="userSpaceOnUse">
<stop stop-color="#FF9537"/>
<stop offset="1" stop-color="#FF7600"/>
</linearGradient>
</defs>
</svg>
