<svg width="14" height="14" viewBox="0 0 14 14" fill="none" xmlns="http://www.w3.org/2000/svg">
<path d="M1.55556 1.94444C1.143 1.94444 0.747335 2.10833 0.455612 2.40005C0.163888 2.69178 0 3.08744 0 3.5L0 10.5C0 10.9126 0.163888 11.3082 0.455612 11.5999C0.747335 11.8917 1.143 12.0556 1.55556 12.0556H3.88889V1.94444H1.55556ZM12.4444 1.94444H10.1111V12.0556H12.4444C12.857 12.0556 13.2527 11.8917 13.5444 11.5999C13.8361 11.3082 14 10.9126 14 10.5V3.5C14 3.08744 13.8361 2.69178 13.5444 2.40005C13.2527 2.10833 12.857 1.94444 12.4444 1.94444Z" fill="#D52B1E"/>
<path d="M3.88867 1.94444H10.1109V12.0556H3.88867V1.94444Z" fill="#EEEEEE"/>
<path d="M7.2393 8.5995C7.70519 8.65356 8.12285 8.70217 8.58835 8.75545L8.46974 8.36578C8.46102 8.33225 8.46221 8.29691 8.47319 8.26405C8.48417 8.23119 8.50445 8.20222 8.53158 8.18067L9.88452 7.07856L9.60452 6.94672C9.48124 6.90278 9.51508 6.83317 9.5598 6.66595L9.7663 5.91306L8.98035 6.07911C8.90374 6.09078 8.8528 6.04217 8.84113 5.9955L8.73963 5.64122L8.11819 6.33889C8.02991 6.45089 7.85102 6.45089 7.90663 6.19267L8.17224 4.77945L7.81563 4.96417C7.71569 5.02017 7.61574 5.0295 7.56013 4.92956L7.06819 4.00945L6.57624 4.92956C6.52024 5.0295 6.4203 5.02017 6.32035 4.96417L5.96413 4.77945L6.22974 6.19267C6.28574 6.45089 6.10646 6.45089 6.01819 6.33889L5.39674 5.64161L5.29563 5.99589C5.28396 6.04256 5.23263 6.09117 5.15602 6.0795L4.37008 5.91345L4.57658 6.66633C4.62052 6.83356 4.65474 6.90317 4.53146 6.94711L4.25146 7.07894L5.60441 8.18106C5.65808 8.22267 5.6853 8.29772 5.66585 8.36617L5.54724 8.75583L6.89669 8.59989C6.93791 8.59989 6.96513 8.62283 6.96474 8.67028L6.88152 10.1107H7.2533L7.17046 8.67028C7.17124 8.62245 7.19808 8.5995 7.2393 8.5995Z" fill="#D52B1E"/>
</svg>
