<svg width="61" height="60" viewBox="0 0 61 60" fill="none" xmlns="http://www.w3.org/2000/svg">
<g filter="url(#filter0_di_462_3132)">
<rect x="2.09985" y="2" width="56" height="56" rx="28" fill="url(#paint0_linear_462_3132)"/>
<path d="M26.4749 34.25L31.5249 32.8C31.8582 32.7 32.1459 32.529 32.3879 32.287C32.6299 32.045 32.8005 31.7577 32.8999 31.425L34.3499 26.375C34.3999 26.1917 34.3542 26.029 34.2129 25.887C34.0715 25.745 33.9089 25.6993 33.7249 25.75L28.6749 27.2C28.3415 27.3 28.0542 27.471 27.8129 27.713C27.5715 27.955 27.4005 28.2423 27.2999 28.575L25.8499 33.625C25.7999 33.8083 25.8459 33.971 25.9879 34.113C26.1299 34.255 26.2922 34.3007 26.4749 34.25ZM30.0999 31.5C29.6832 31.5 29.3292 31.3543 29.0379 31.063C28.7465 30.7717 28.6005 30.4173 28.5999 30C28.5992 29.5827 28.7452 29.2287 29.0379 28.938C29.3305 28.6473 29.6845 28.5013 30.0999 28.5C30.5152 28.4987 30.8695 28.6447 31.1629 28.938C31.4562 29.2313 31.6019 29.5853 31.5999 30C31.5979 30.4147 31.4522 30.769 31.1629 31.063C30.8735 31.357 30.5192 31.5027 30.0999 31.5ZM30.0999 40C28.7165 40 27.4165 39.7373 26.1999 39.212C24.9832 38.6867 23.9249 37.9743 23.0249 37.075C22.1249 36.1757 21.4125 35.1173 20.8879 33.9C20.3632 32.6827 20.1005 31.3827 20.0999 30C20.0992 28.6173 20.3619 27.3173 20.8879 26.1C21.4139 24.8827 22.1262 23.8243 23.0249 22.925C23.9235 22.0257 24.9819 21.3133 26.1999 20.788C27.4179 20.2627 28.7179 20 30.0999 20C31.4819 20 32.7819 20.2627 33.9999 20.788C35.2179 21.3133 36.2762 22.0257 37.1749 22.925C38.0735 23.8243 38.7862 24.8827 39.3129 26.1C39.8395 27.3173 40.1019 28.6173 40.0999 30C40.0979 31.3827 39.8352 32.6827 39.3119 33.9C38.7885 35.1173 38.0762 36.1757 37.1749 37.075C36.2735 37.9743 35.2152 38.687 33.9999 39.213C32.7845 39.739 31.4845 40.0013 30.0999 40ZM30.0999 38C32.3165 38 34.2042 37.221 35.7629 35.663C37.3215 34.105 38.1005 32.2173 38.0999 30C38.0992 27.7827 37.3202 25.895 35.7629 24.337C34.2055 22.779 32.3179 22 30.0999 22C27.8819 22 25.9942 22.7793 24.4369 24.338C22.8795 25.8967 22.1005 27.784 22.0999 30C22.0992 32.216 22.8785 34.1037 24.4379 35.663C25.9972 37.2223 27.8845 38.0013 30.0999 38Z" fill="white"/>
</g>
<defs>
<filter id="filter0_di_462_3132" x="0.0998535" y="0" width="60" height="60" filterUnits="userSpaceOnUse" color-interpolation-filters="sRGB">
<feFlood flood-opacity="0" result="BackgroundImageFix"/>
<feColorMatrix in="SourceAlpha" type="matrix" values="0 0 0 0 0 0 0 0 0 0 0 0 0 0 0 0 0 0 127 0" result="hardAlpha"/>
<feOffset/>
<feGaussianBlur stdDeviation="1"/>
<feColorMatrix type="matrix" values="0 0 0 0 0.0901961 0 0 0 0 0.101961 0 0 0 0 0.121569 0 0 0 0.12 0"/>
<feBlend mode="normal" in2="BackgroundImageFix" result="effect1_dropShadow_462_3132"/>
<feBlend mode="normal" in="SourceGraphic" in2="effect1_dropShadow_462_3132" result="shape"/>
<feColorMatrix in="SourceAlpha" type="matrix" values="0 0 0 0 0 0 0 0 0 0 0 0 0 0 0 0 0 0 127 0" result="hardAlpha"/>
<feOffset dy="-2"/>
<feGaussianBlur stdDeviation="2"/>
<feComposite in2="hardAlpha" operator="arithmetic" k2="-1" k3="1"/>
<feColorMatrix type="matrix" values="0 0 0 0 0.0901961 0 0 0 0 0.101961 0 0 0 0 0.121569 0 0 0 0.25 0"/>
<feBlend mode="normal" in2="shape" result="effect2_innerShadow_462_3132"/>
</filter>
<linearGradient id="paint0_linear_462_3132" x1="2.09985" y1="4.5579" x2="58.0999" y2="55.4421" gradientUnits="userSpaceOnUse">
<stop stop-color="#FF9537"/>
<stop offset="1" stop-color="#FF7600"/>
</linearGradient>
</defs>
</svg>
