<svg width="61" height="60" viewBox="0 0 61 60" fill="none" xmlns="http://www.w3.org/2000/svg">
<g filter="url(#filter0_di_803_1533)">
<rect x="2.5" y="2" width="56" height="56" rx="28" fill="url(#paint0_linear_803_1533)"/>
<path d="M31 21.75C30.5027 21.75 30.0258 21.9475 29.6742 22.2992C29.3225 22.6508 29.125 23.1277 29.125 23.625C29.125 24.1223 29.3225 24.5992 29.6742 24.9508C30.0258 25.3025 30.5027 25.5 31 25.5C31.4973 25.5 31.9742 25.3025 32.3258 24.9508C32.6775 24.5992 32.875 24.1223 32.875 23.625C32.875 23.1277 32.6775 22.6508 32.3258 22.2992C31.9742 21.9475 31.4973 21.75 31 21.75ZM27.625 23.625C27.625 22.7299 27.9806 21.8714 28.6135 21.2385C29.2465 20.6056 30.1049 20.25 31 20.25C31.8951 20.25 32.7535 20.6056 33.3865 21.2385C34.0194 21.8714 34.375 22.7299 34.375 23.625C34.375 24.5201 34.0194 25.3786 33.3865 26.0115C32.7535 26.6444 31.8951 27 31 27C30.1049 27 29.2465 26.6444 28.6135 26.0115C27.9806 25.3786 27.625 24.5201 27.625 23.625ZM23.5 24C23.1022 24 22.7206 24.158 22.4393 24.4393C22.158 24.7206 22 25.1022 22 25.5C22 25.8978 22.158 26.2794 22.4393 26.5607C22.7206 26.842 23.1022 27 23.5 27C23.8978 27 24.2794 26.842 24.5607 26.5607C24.842 26.2794 25 25.8978 25 25.5C25 25.1022 24.842 24.7206 24.5607 24.4393C24.2794 24.158 23.8978 24 23.5 24ZM20.5 25.5C20.5 24.7044 20.8161 23.9413 21.3787 23.3787C21.9413 22.8161 22.7044 22.5 23.5 22.5C24.2956 22.5 25.0587 22.8161 25.6213 23.3787C26.1839 23.9413 26.5 24.7044 26.5 25.5C26.5 26.2956 26.1839 27.0587 25.6213 27.6213C25.0587 28.1839 24.2956 28.5 23.5 28.5C22.7044 28.5 21.9413 28.1839 21.3787 27.6213C20.8161 27.0587 20.5 26.2956 20.5 25.5ZM37 25.5C37 25.1022 37.158 24.7206 37.4393 24.4393C37.7206 24.158 38.1022 24 38.5 24C38.8978 24 39.2794 24.158 39.5607 24.4393C39.842 24.7206 40 25.1022 40 25.5C40 25.8978 39.842 26.2794 39.5607 26.5607C39.2794 26.842 38.8978 27 38.5 27C38.1022 27 37.7206 26.842 37.4393 26.5607C37.158 26.2794 37 25.8978 37 25.5ZM38.5 22.5C37.7044 22.5 36.9413 22.8161 36.3787 23.3787C35.8161 23.9413 35.5 24.7044 35.5 25.5C35.5 26.2956 35.8161 27.0587 36.3787 27.6213C36.9413 28.1839 37.7044 28.5 38.5 28.5C39.2956 28.5 40.0587 28.1839 40.6213 27.6213C41.1839 27.0587 41.5 26.2956 41.5 25.5C41.5 24.7044 41.1839 23.9413 40.6213 23.3787C40.0587 22.8161 39.2956 22.5 38.5 22.5ZM25.375 30.375C25.375 30.208 25.3883 30.0452 25.4148 29.8868L21.8898 30.831C21.4095 30.9598 21.0001 31.2741 20.7516 31.7048C20.503 32.1355 20.4357 32.6472 20.5645 33.1275L21.244 35.6625C21.408 36.275 21.6996 36.8459 22.0997 37.3378C22.4998 37.8298 22.9993 38.2316 23.5655 38.5169C24.1318 38.8023 24.7519 38.9648 25.3853 38.9938C26.0187 39.0227 26.6511 38.9175 27.241 38.685C26.8356 38.3211 26.4852 37.9002 26.2007 37.4355C25.4507 37.5913 24.6695 37.4542 24.0173 37.0525C23.3651 36.6507 22.8913 36.0147 22.693 35.2748L22.0135 32.7397C22.0007 32.6922 21.9974 32.6425 22.0037 32.5937C22.0101 32.5448 22.026 32.4977 22.0506 32.455C22.0752 32.4123 22.108 32.3749 22.147 32.3449C22.1861 32.3148 22.2307 32.2928 22.2782 32.28L25.375 31.4505V30.375ZM35.2428 38.8447C35.0784 38.8009 34.9166 38.7479 34.7582 38.6857C35.1639 38.3219 35.5146 37.901 35.7992 37.4363C36.5492 37.5916 37.3301 37.4542 37.9819 37.0523C38.6338 36.6504 39.1074 36.0145 39.3055 35.2748L39.9842 32.739C40.0099 32.643 39.9965 32.5408 39.9468 32.4547C39.8972 32.3687 39.8154 32.3058 39.7195 32.28L36.625 31.4505V30.375C36.625 30.209 36.6117 30.0465 36.5853 29.8875L40.108 30.831C40.5883 30.9598 40.9977 31.2741 41.2462 31.7048C41.4947 32.1355 41.562 32.6472 41.4333 33.1275L40.7537 35.6625C40.4449 36.8153 39.6908 37.7982 38.6573 38.3949C37.6238 38.9917 36.3955 39.1535 35.2428 38.8447ZM28.375 28.5C27.8777 28.5 27.4008 28.6975 27.0492 29.0492C26.6975 29.4008 26.5 29.8777 26.5 30.375V34.5C26.5 35.6935 26.9741 36.8381 27.818 37.682C28.6619 38.5259 29.8065 39 31 39C32.1935 39 33.3381 38.5259 34.182 37.682C35.0259 36.8381 35.5 35.6935 35.5 34.5V30.375C35.5 29.8777 35.3025 29.4008 34.9508 29.0492C34.5992 28.6975 34.1223 28.5 33.625 28.5H28.375ZM28 30.375C28 30.2755 28.0395 30.1802 28.1098 30.1098C28.1802 30.0395 28.2755 30 28.375 30H33.625C33.7245 30 33.8198 30.0395 33.8902 30.1098C33.9605 30.1802 34 30.2755 34 30.375V34.5C34 35.2956 33.6839 36.0587 33.1213 36.6213C32.5587 37.1839 31.7956 37.5 31 37.5C30.2044 37.5 29.4413 37.1839 28.8787 36.6213C28.3161 36.0587 28 35.2956 28 34.5V30.375Z" fill="white"/>
</g>
<defs>
<filter id="filter0_di_803_1533" x="0.5" y="0" width="60" height="60" filterUnits="userSpaceOnUse" color-interpolation-filters="sRGB">
<feFlood flood-opacity="0" result="BackgroundImageFix"/>
<feColorMatrix in="SourceAlpha" type="matrix" values="0 0 0 0 0 0 0 0 0 0 0 0 0 0 0 0 0 0 127 0" result="hardAlpha"/>
<feOffset/>
<feGaussianBlur stdDeviation="1"/>
<feColorMatrix type="matrix" values="0 0 0 0 0.0901961 0 0 0 0 0.101961 0 0 0 0 0.121569 0 0 0 0.12 0"/>
<feBlend mode="normal" in2="BackgroundImageFix" result="effect1_dropShadow_803_1533"/>
<feBlend mode="normal" in="SourceGraphic" in2="effect1_dropShadow_803_1533" result="shape"/>
<feColorMatrix in="SourceAlpha" type="matrix" values="0 0 0 0 0 0 0 0 0 0 0 0 0 0 0 0 0 0 127 0" result="hardAlpha"/>
<feOffset dy="-2"/>
<feGaussianBlur stdDeviation="2"/>
<feComposite in2="hardAlpha" operator="arithmetic" k2="-1" k3="1"/>
<feColorMatrix type="matrix" values="0 0 0 0 0.0901961 0 0 0 0 0.101961 0 0 0 0 0.121569 0 0 0 0.25 0"/>
<feBlend mode="normal" in2="shape" result="effect2_innerShadow_803_1533"/>
</filter>
<linearGradient id="paint0_linear_803_1533" x1="2.5" y1="4.5579" x2="58.5" y2="55.4421" gradientUnits="userSpaceOnUse">
<stop stop-color="#FF9537"/>
<stop offset="1" stop-color="#FF7600"/>
</linearGradient>
</defs>
</svg>
