<svg width="49" height="48" viewBox="0 0 49 48" fill="none" xmlns="http://www.w3.org/2000/svg">
<rect x="0.5" width="48" height="48" rx="24" fill="#C4C4C4" fill-opacity="0.2"/>
<path d="M17.6048 32.1667H31.6048L30.0881 33.6717C29.8684 33.8914 29.745 34.1893 29.745 34.5C29.745 34.8107 29.8684 35.1086 30.0881 35.3283C30.3078 35.548 30.6057 35.6714 30.9164 35.6714C31.2271 35.6714 31.5251 35.548 31.7448 35.3283L35.2448 31.8283C35.3541 31.7199 35.4409 31.5908 35.5001 31.4487C35.5594 31.3065 35.5899 31.154 35.5899 31C35.5899 30.846 35.5594 30.6935 35.5001 30.5513C35.4409 30.4092 35.3541 30.2801 35.2448 30.1717L31.7448 26.6717C31.6363 26.5623 31.5073 26.4755 31.3651 26.4163C31.2229 26.3571 31.0704 26.3266 30.9164 26.3266C30.7624 26.3266 30.6099 26.3571 30.4678 26.4163C30.3256 26.4755 30.1966 26.5623 30.0881 26.6717C29.9788 26.7801 29.892 26.9092 29.8327 27.0513C29.7735 27.1935 29.743 27.346 29.743 27.5C29.743 27.654 29.7735 27.8065 29.8327 27.9487C29.892 28.0908 29.9788 28.2199 30.0881 28.3283L31.6048 29.8333H17.6048C17.3657 29.838 17.1282 29.7955 16.9056 29.7083C16.683 29.6211 16.4797 29.4909 16.3075 29.3251C16.1352 29.1594 15.9973 28.9613 15.9016 28.7422C15.8059 28.5231 15.7543 28.2874 15.7498 28.0483V25.1667C15.7498 24.8572 15.6268 24.5605 15.4081 24.3417C15.1893 24.1229 14.8925 24 14.5831 24C14.2737 24 13.9769 24.1229 13.7581 24.3417C13.5393 24.5605 13.4164 24.8572 13.4164 25.1667V28.0483C13.421 28.5938 13.533 29.1329 13.7459 29.6351C13.9589 30.1373 14.2687 30.5925 14.6576 30.975C15.0465 31.3574 15.507 31.6595 16.0127 31.8639C16.5183 32.0684 17.0593 32.1713 17.6048 32.1667ZM17.2548 21.3283C17.4745 21.548 17.7724 21.6714 18.0831 21.6714C18.3938 21.6714 18.6917 21.548 18.9114 21.3283C19.1311 21.1086 19.2545 20.8107 19.2545 20.5C19.2545 20.1893 19.1311 19.8914 18.9114 19.6717L17.3948 18.1667H31.3948C31.6338 18.162 31.8714 18.2045 32.094 18.2917C32.3166 18.3789 32.5198 18.5091 32.692 18.6749C32.8643 18.8406 33.0022 19.0387 33.0979 19.2578C33.1936 19.4769 33.2452 19.7126 33.2498 19.9517V22.8333C33.2498 23.1428 33.3727 23.4395 33.5915 23.6583C33.8103 23.8771 34.107 24 34.4164 24C34.7259 24 35.0226 23.8771 35.2414 23.6583C35.4602 23.4395 35.5831 23.1428 35.5831 22.8333V19.9517C35.5785 19.4062 35.4666 18.8671 35.2536 18.3649C35.0406 17.8627 34.7308 17.4075 34.3419 17.025C33.953 16.6426 33.4925 16.3405 32.9869 16.1361C32.4812 15.9316 31.9402 15.8287 31.3948 15.8333H17.3948L18.9114 14.3283C19.0208 14.2199 19.1076 14.0908 19.1668 13.9487C19.226 13.8065 19.2565 13.654 19.2565 13.5C19.2565 13.346 19.226 13.1935 19.1668 13.0513C19.1076 12.9092 19.0208 12.7801 18.9114 12.6717C18.803 12.5623 18.6739 12.4755 18.5318 12.4163C18.3896 12.3571 18.2371 12.3266 18.0831 12.3266C17.9291 12.3266 17.7766 12.3571 17.6344 12.4163C17.4923 12.4755 17.3632 12.5623 17.2548 12.6717L13.7548 16.1717C13.6454 16.2801 13.5586 16.4092 13.4994 16.5513C13.4402 16.6935 13.4097 16.846 13.4097 17C13.4097 17.154 13.4402 17.3065 13.4994 17.4487C13.5586 17.5908 13.6454 17.7199 13.7548 17.8283L17.2548 21.3283Z" fill="#141415"/>
</svg>
