<svg width="25" height="24" viewBox="0 0 25 24" fill="none" xmlns="http://www.w3.org/2000/svg">
<g clip-path="url(#clip0_462_3133)">
<path d="M16.2433 7.67831C17.2891 7.67831 18.1342 6.56745 18.1342 5.19603C18.1342 3.8246 17.2873 2.71545 16.2433 2.71545C15.2011 2.71545 14.3542 3.82631 14.3542 5.19603C14.3542 6.56745 15.2011 7.67831 16.2433 7.67831ZM9.15649 7.67831C10.1988 7.67831 11.0456 6.56745 11.0456 5.19603C11.0456 3.8246 10.1971 2.71545 9.15649 2.71545C8.11592 2.71545 7.26563 3.82631 7.26563 5.19603C7.26563 6.56745 8.11249 7.67831 9.15649 7.67831ZM21.3622 13.9783C22.4593 13.9783 23.3473 12.8675 23.3473 11.496C23.3473 10.1246 22.4576 9.01545 21.3622 9.01545C20.2668 9.01545 19.3753 10.1263 19.3753 11.496C19.3753 12.8675 20.2668 13.9783 21.3622 13.9783ZM4.03763 13.9783C5.13478 13.9783 6.02278 12.8675 6.02278 11.496C6.02278 10.1246 5.13306 9.01717 4.03763 9.01717C2.94049 9.01717 2.05249 10.128 2.05249 11.4977C2.05249 12.8692 2.94049 13.9783 4.03763 13.9783ZM17.6628 17.976C17.6628 20.2595 14.9833 21.2846 12.6999 21.2846C10.4165 21.2846 7.73706 20.2595 7.73706 17.976C7.73706 15.6926 9.39135 12.1869 12.6999 12.1869C16.0085 12.1869 17.6628 15.6926 17.6628 17.976Z" stroke="#7C7979" stroke-width="1.71429" stroke-linecap="round" stroke-linejoin="round"/>
</g>
<defs>
<clipPath id="clip0_462_3133">
<rect width="24" height="24" fill="white" transform="translate(0.699951)"/>
</clipPath>
</defs>
</svg>
