<svg width="61" height="60" viewBox="0 0 61 60" fill="none" xmlns="http://www.w3.org/2000/svg">
<g filter="url(#filter0_di_803_1423)">
<rect x="2.8999" y="2" width="56" height="56" rx="28" fill="url(#paint0_linear_803_1423)"/>
<path d="M22.0464 28.1344L20.8016 39.3344L22.392 39.512L23.6368 28.3104L22.0464 28.1344ZM23.1872 42H38.8128V40.4H23.1872V42ZM41.1984 39.3344L39.9536 28.1344L38.3632 28.3104L39.608 39.512L41.1984 39.3344ZM37.5664 26H24.4336V27.6H37.5696L37.5664 26ZM39.9536 28.1344C39.8882 27.5474 39.6088 27.0052 39.1686 26.6114C38.7285 26.2176 38.157 25.9999 37.5664 26L37.568 27.6C37.765 27.6 37.955 27.6726 38.1017 27.804C38.2484 27.9354 38.3415 28.1163 38.3632 28.312L39.9536 28.1344ZM38.8128 42C39.1503 41.9998 39.4839 41.9285 39.792 41.7906C40.1 41.6528 40.3755 41.4515 40.6005 41.1999C40.8254 40.9484 40.9948 40.6522 41.0976 40.3308C41.2003 40.0093 41.2358 39.6698 41.1984 39.3344L39.608 39.512C39.6206 39.6239 39.6095 39.7357 39.5753 39.843C39.541 39.9503 39.4846 40.0492 39.4095 40.1332C39.3344 40.2171 39.2425 40.2843 39.1396 40.3303C39.0368 40.3763 38.9254 40.4 38.8128 40.4V42ZM20.8016 39.3344C20.7642 39.6699 20.7981 40.0096 20.9009 40.3311C21.0038 40.6527 21.1733 40.949 21.3985 41.2005C21.6236 41.4521 21.8993 41.6533 22.2075 41.7911C22.5158 41.9289 22.8496 42 23.1872 42V40.4C23.0747 40.4 22.9635 40.3763 22.8608 40.3304C22.7581 40.2845 22.6662 40.2175 22.5912 40.1337C22.5161 40.0499 22.4596 39.9512 22.4253 39.8441C22.391 39.737 22.3796 39.6238 22.392 39.512L20.8016 39.3344ZM23.6368 28.3104C23.6588 28.1149 23.7521 27.9344 23.8988 27.8034C24.0455 27.6724 24.2369 27.5999 24.4336 27.6V26C23.8433 26.0003 23.2722 26.2182 22.8324 26.6119C22.3926 27.0057 22.1117 27.5477 22.0464 28.1344L23.6368 28.3104ZM27 24.4V23.6H25.4V24.4H27ZM35 23.6V24.4H36.6V23.6H35ZM31 19.6C32.0609 19.6 33.0783 20.0214 33.8284 20.7716C34.5786 21.5217 35 22.5391 35 23.6H36.6C36.6 22.1148 36.01 20.6904 34.9598 19.6402C33.9096 18.59 32.4852 18 31 18V19.6ZM27 23.6C27 22.5391 27.4214 21.5217 28.1716 20.7716C28.9217 20.0214 29.9391 19.6 31 19.6V18C29.5148 18 28.0904 18.59 27.0402 19.6402C25.99 20.6904 25.4 22.1148 25.4 23.6H27Z" fill="white"/>
</g>
<defs>
<filter id="filter0_di_803_1423" x="0.899902" y="0" width="60" height="60" filterUnits="userSpaceOnUse" color-interpolation-filters="sRGB">
<feFlood flood-opacity="0" result="BackgroundImageFix"/>
<feColorMatrix in="SourceAlpha" type="matrix" values="0 0 0 0 0 0 0 0 0 0 0 0 0 0 0 0 0 0 127 0" result="hardAlpha"/>
<feOffset/>
<feGaussianBlur stdDeviation="1"/>
<feColorMatrix type="matrix" values="0 0 0 0 0.0901961 0 0 0 0 0.101961 0 0 0 0 0.121569 0 0 0 0.12 0"/>
<feBlend mode="normal" in2="BackgroundImageFix" result="effect1_dropShadow_803_1423"/>
<feBlend mode="normal" in="SourceGraphic" in2="effect1_dropShadow_803_1423" result="shape"/>
<feColorMatrix in="SourceAlpha" type="matrix" values="0 0 0 0 0 0 0 0 0 0 0 0 0 0 0 0 0 0 127 0" result="hardAlpha"/>
<feOffset dy="-2"/>
<feGaussianBlur stdDeviation="2"/>
<feComposite in2="hardAlpha" operator="arithmetic" k2="-1" k3="1"/>
<feColorMatrix type="matrix" values="0 0 0 0 0.0901961 0 0 0 0 0.101961 0 0 0 0 0.121569 0 0 0 0.25 0"/>
<feBlend mode="normal" in2="shape" result="effect2_innerShadow_803_1423"/>
</filter>
<linearGradient id="paint0_linear_803_1423" x1="2.8999" y1="4.5579" x2="58.8999" y2="55.4421" gradientUnits="userSpaceOnUse">
<stop stop-color="#FF9537"/>
<stop offset="1" stop-color="#FF7600"/>
</linearGradient>
</defs>
</svg>
