<svg width="22" height="19" viewBox="0 0 22 19" fill="none" xmlns="http://www.w3.org/2000/svg">
<path d="M19.5 5.85352H14V2.60352C13.9992 1.94072 13.7356 1.30529 13.2669 0.836626C12.7982 0.367957 12.1628 0.10431 11.5 0.103516H2.5C1.8372 0.10431 1.20178 0.367957 0.73311 0.836626C0.264441 1.30529 0.000793929 1.94072 0 2.60352V8.60352C0.000793929 9.26631 0.264441 9.90174 0.73311 10.3704C1.20178 10.8391 1.8372 11.1027 2.5 11.1035V12.1485C2.49963 12.3458 2.55796 12.5387 2.66756 12.7027C2.77717 12.8667 2.9331 12.9944 3.1155 13.0695C3.2987 13.1458 3.50047 13.1659 3.69511 13.1271C3.88975 13.0884 4.06846 12.9926 4.2085 12.852C4.22675 12.8345 4.24348 12.8154 4.2585 12.795L5.5025 11.1035H8V14.3535C8.00079 15.0163 8.26444 15.6517 8.73311 16.1204C9.20178 16.5891 9.8372 16.8527 10.5 16.8535H16.043L17.793 18.6035C17.9329 18.7433 18.111 18.8385 18.305 18.8771C18.4989 18.9157 18.7 18.8959 18.8827 18.8202C19.0654 18.7445 19.2215 18.6164 19.3314 18.452C19.4413 18.2876 19.5 18.0943 19.5 17.8965V16.8535C20.1628 16.8527 20.7982 16.5891 21.2669 16.1204C21.7356 15.6517 21.9992 15.0163 22 14.3535V8.35352C21.9992 7.69072 21.7356 7.05529 21.2669 6.58663C20.7982 6.11796 20.1628 5.85431 19.5 5.85352ZM5.25 10.1035C5.17208 10.1039 5.09534 10.1225 5.02589 10.1579C4.95644 10.1932 4.89621 10.2443 4.85 10.307L3.5 12.137V10.6035C3.5 10.4709 3.44732 10.3437 3.35355 10.25C3.25979 10.1562 3.13261 10.1035 3 10.1035H2.5C2.10218 10.1035 1.72064 9.94548 1.43934 9.66418C1.15804 9.38287 1 9.00134 1 8.60352V2.60352C1 2.20569 1.15804 1.82416 1.43934 1.54286C1.72064 1.26155 2.10218 1.10352 2.5 1.10352H11.5C11.8978 1.10352 12.2794 1.26155 12.5607 1.54286C12.842 1.82416 13 2.20569 13 2.60352V5.85352H10.5C9.96806 5.85509 9.45074 6.02776 9.0245 6.34602L7.455 2.89602C7.41523 2.80872 7.35118 2.73471 7.27051 2.68281C7.18983 2.63091 7.09593 2.60332 7 2.60332C6.90407 2.60332 6.81017 2.63091 6.72949 2.68281C6.64882 2.73471 6.58477 2.80872 6.545 2.89602L4.045 8.39602C4.0179 8.45589 4.00287 8.52052 4.00076 8.58621C3.99866 8.6519 4.00953 8.71736 4.03275 8.77885C4.05597 8.84033 4.09108 8.89664 4.13608 8.94454C4.18108 8.99244 4.23508 9.031 4.295 9.05802C4.35925 9.08779 4.42918 9.10331 4.5 9.10352C4.59596 9.10349 4.68989 9.07585 4.77057 9.02389C4.85125 8.97194 4.91527 8.89787 4.955 8.81052L5.731 7.10352H8.27L8.3055 7.18102C8.10788 7.54042 8.00289 7.94338 8 8.35352V10.1035H5.25ZM7.8155 6.10352H6.1855L7 4.31152L7.8155 6.10352ZM21 14.3535C21 14.7513 20.842 15.1329 20.5607 15.4142C20.2794 15.6955 19.8978 15.8535 19.5 15.8535H19C18.8674 15.8535 18.7402 15.9062 18.6464 16C18.5527 16.0937 18.5 16.2209 18.5 16.3535V17.8965L16.6035 16C16.5098 15.9062 16.3826 15.8535 16.25 15.8535H10.5C10.1022 15.8535 9.72064 15.6955 9.43934 15.4142C9.15804 15.1329 9 14.7513 9 14.3535V8.35352C9 7.95569 9.15804 7.57416 9.43934 7.29286C9.72064 7.01155 10.1022 6.85352 10.5 6.85352H19.5C19.8978 6.85352 20.2794 7.01155 20.5607 7.29286C20.842 7.57416 21 7.95569 21 8.35352V14.3535Z" fill="black"/>
<path d="M17.4998 9.60352H15.4998V8.60352C15.4998 8.47091 15.4471 8.34373 15.3533 8.24996C15.2595 8.15619 15.1324 8.10352 14.9998 8.10352C14.8671 8.10352 14.74 8.15619 14.6462 8.24996C14.5524 8.34373 14.4998 8.47091 14.4998 8.60352V9.60352H12.4998C12.3671 9.60352 12.24 9.65619 12.1462 9.74996C12.0524 9.84373 11.9998 9.97091 11.9998 10.1035C11.9998 10.2361 12.0524 10.3633 12.1462 10.4571C12.24 10.5508 12.3671 10.6035 12.4998 10.6035H16.2098C16.0873 11.453 15.6553 12.2272 14.9968 12.7775C14.6121 12.4562 14.3012 12.0558 14.0853 11.6035C14.0581 11.5427 14.019 11.4879 13.9703 11.4423C13.9217 11.3968 13.8644 11.3614 13.8019 11.3384C13.7393 11.3153 13.6728 11.3049 13.6063 11.3079C13.5397 11.3109 13.4744 11.3272 13.4142 11.3558C13.354 11.3844 13.3001 11.4247 13.2557 11.4745C13.2113 11.5242 13.1773 11.5823 13.1557 11.6453C13.1341 11.7084 13.1253 11.7751 13.1299 11.8416C13.1344 11.9081 13.1523 11.973 13.1823 12.0325C13.4146 12.5142 13.7322 12.9499 14.1198 13.3185C13.6754 13.5078 13.1972 13.6047 12.7143 13.6035C12.6495 13.6038 12.5854 13.6171 12.5259 13.6425C12.4663 13.668 12.4125 13.7051 12.3675 13.7517C12.3226 13.7983 12.2874 13.8535 12.2641 13.9139C12.2407 13.9743 12.2298 14.0388 12.2318 14.1035C12.2358 14.238 12.2922 14.3655 12.389 14.4589C12.4858 14.5523 12.6152 14.6042 12.7498 14.6035C13.5444 14.6032 14.3246 14.3909 15.0098 13.9885C15.7013 14.3892 16.486 14.6013 17.2853 14.6035C17.35 14.6032 17.4141 14.5899 17.4736 14.5645C17.5332 14.539 17.587 14.5019 17.632 14.4553C17.677 14.4087 17.7121 14.3536 17.7355 14.2931C17.7588 14.2327 17.7698 14.1682 17.7678 14.1035C17.7637 13.9691 17.7073 13.8415 17.6105 13.7481C17.5137 13.6547 17.3843 13.6028 17.2498 13.6035C16.782 13.6017 16.3194 13.5054 15.8898 13.3205C16.6345 12.5963 17.1048 11.6359 17.2203 10.6035H17.4998C17.6324 10.6035 17.7595 10.5508 17.8533 10.4571C17.9471 10.3633 17.9998 10.2361 17.9998 10.1035C17.9998 9.97091 17.9471 9.84373 17.8533 9.74996C17.7595 9.65619 17.6324 9.60352 17.4998 9.60352Z" fill="black"/>
</svg>
