<svg width="40" height="41" viewBox="0 0 40 41" fill="none" xmlns="http://www.w3.org/2000/svg">
<path d="M36.6666 17.0833H23.3334V3.41672C23.3334 1.53072 21.8434 0 20 0C18.1566 0 16.6666 1.53072 16.6666 3.41672V17.0833H3.33339C1.49002 17.0833 0 18.614 0 20.5C0 22.386 1.49002 23.9167 3.33339 23.9167H16.6666V37.5833C16.6666 39.4693 18.1566 41 20 41C21.8434 41 23.3334 39.4693 23.3334 37.5833V23.9167H36.6666C38.51 23.9167 40 22.386 40 20.5C40 18.614 38.51 17.0833 36.6666 17.0833Z" fill="#FF7600"/>
</svg>
