<svg width="10" height="14" viewBox="0 0 10 14" fill="none" xmlns="http://www.w3.org/2000/svg">
<path d="M4.99992 6.66683C4.55789 6.66683 4.13397 6.49123 3.82141 6.17867C3.50885 5.86611 3.33325 5.44219 3.33325 5.00016C3.33325 4.55814 3.50885 4.13421 3.82141 3.82165C4.13397 3.50909 4.55789 3.3335 4.99992 3.3335C5.44195 3.3335 5.86587 3.50909 6.17843 3.82165C6.49099 4.13421 6.66658 4.55814 6.66658 5.00016C6.66658 5.21903 6.62348 5.43576 6.53972 5.63797C6.45596 5.84018 6.33319 6.02391 6.17843 6.17867C6.02367 6.33344 5.83993 6.4562 5.63772 6.53996C5.43551 6.62372 5.21879 6.66683 4.99992 6.66683ZM4.99992 0.333496C3.76224 0.333496 2.57526 0.825161 1.70009 1.70033C0.824917 2.5755 0.333252 3.76249 0.333252 5.00016C0.333252 8.50016 4.99992 13.6668 4.99992 13.6668C4.99992 13.6668 9.66658 8.50016 9.66658 5.00016C9.66658 3.76249 9.17492 2.5755 8.29975 1.70033C7.42458 0.825161 6.2376 0.333496 4.99992 0.333496Z" fill="url(#paint0_linear_1494_856)"/>
<defs>
<linearGradient id="paint0_linear_1494_856" x1="0.333252" y1="0.94252" x2="12.4646" y2="8.65872" gradientUnits="userSpaceOnUse">
<stop stop-color="#FF9537"/>
<stop offset="1" stop-color="#FF7600"/>
</linearGradient>
</defs>
</svg>
