<svg width="49" height="48" viewBox="0 0 49 48" fill="none" xmlns="http://www.w3.org/2000/svg">
<rect x="0.5" width="48" height="48" rx="24" fill="#C4C4C4" fill-opacity="0.2"/>
<g clip-path="url(#clip0_105_580)">
<path d="M17.9608 18.9892C18.8184 18.1288 19.8376 17.4464 20.9599 16.9813C22.0821 16.5162 23.2852 16.2775 24.5 16.279C26.9533 16.2793 29.306 17.254 31.0408 18.9887C32.7755 20.7235 33.7502 23.0762 33.7505 25.5295C33.7502 27.9839 32.7759 30.3378 31.0415 32.0744C29.3071 33.811 26.9544 34.7883 24.5 34.7917C22.0454 34.7883 19.6926 33.8108 17.9581 32.074C16.2237 30.3371 15.2495 27.9829 15.2495 25.5283" stroke="#141415" stroke-width="1.75" stroke-miterlimit="10" stroke-linecap="round"/>
<path d="M18.8073 13.2083L17.6989 17.7093C17.6006 18.1083 17.6645 18.53 17.8766 18.8819C18.0888 19.2338 18.4319 19.4872 18.8306 19.5865L23.3444 20.6925" stroke="#141415" stroke-width="1.75" stroke-linecap="round" stroke-linejoin="round"/>
</g>
<defs>
<clipPath id="clip0_105_580">
<rect width="28" height="28" fill="white" transform="translate(10.5 10)"/>
</clipPath>
</defs>
</svg>
