<svg width="16" height="17" viewBox="0 0 16 17" fill="none" xmlns="http://www.w3.org/2000/svg">
<path d="M4.66667 7.83301V5.16634C4.66667 4.28229 5.01786 3.43444 5.64298 2.80932C6.2681 2.1842 7.11595 1.83301 8 1.83301C8.88406 1.83301 9.7319 2.1842 10.357 2.80932C10.9821 3.43444 11.3333 4.28229 11.3333 5.16634V7.83301M3.33333 7.83301H12.6667C13.403 7.83301 14 8.42996 14 9.16634V13.833C14 14.5694 13.403 15.1663 12.6667 15.1663H3.33333C2.59695 15.1663 2 14.5694 2 13.833V9.16634C2 8.42996 2.59695 7.83301 3.33333 7.83301Z" stroke="#1E1E1E" stroke-linecap="round" stroke-linejoin="round"/>
</svg>
