<svg width="12" height="12" viewBox="0 0 12 12" fill="none" xmlns="http://www.w3.org/2000/svg">
<path d="M2.86993 8C2.92493 7.755 2.82493 7.405 2.64993 7.23L1.43493 6.015C1.05493 5.635 0.904929 5.23 1.01493 4.88C1.12993 4.53 1.48493 4.29 2.01493 4.2L3.57493 3.94C3.79993 3.9 4.07493 3.7 4.17993 3.495L5.03993 1.77C5.28993 1.275 5.62993 1 5.99993 1C6.36993 1 6.70993 1.275 6.95993 1.77L7.81993 3.495C7.88493 3.625 8.01993 3.75 8.16493 3.835L2.77993 9.22C2.70993 9.29 2.58993 9.225 2.60993 9.125L2.86993 8Z" fill="#FFCC00"/>
<path d="M9.3499 7.22995C9.1699 7.40995 9.0699 7.75495 9.1299 7.99995L9.4749 9.50495C9.6199 10.1299 9.5299 10.5999 9.2199 10.8249C9.0949 10.9149 8.9449 10.9599 8.7699 10.9599C8.5149 10.9599 8.2149 10.8649 7.8849 10.6699L6.4199 9.79995C6.1899 9.66495 5.8099 9.66495 5.5799 9.79995L4.1149 10.6699C3.5599 10.9949 3.0849 11.0499 2.7799 10.8249C2.6649 10.7399 2.5799 10.6249 2.5249 10.4749L8.6049 4.39495C8.8349 4.16495 9.1599 4.05995 9.4749 4.11495L9.9799 4.19995C10.5099 4.28995 10.8649 4.52995 10.9799 4.87995C11.0899 5.22995 10.9399 5.63495 10.5599 6.01495L9.3499 7.22995Z" fill="#FFCC00"/>
</svg>
