<svg width="20" height="20" viewBox="0 0 20 20" fill="none" xmlns="http://www.w3.org/2000/svg">
<path d="M15.8337 3.33317H14.167V2.49984C14.167 2.27882 14.0792 2.06686 13.9229 1.91058C13.7666 1.7543 13.5547 1.6665 13.3337 1.6665C13.1126 1.6665 12.9007 1.7543 12.7444 1.91058C12.5881 2.06686 12.5003 2.27882 12.5003 2.49984V3.33317H7.50033V2.49984C7.50033 2.27882 7.41253 2.06686 7.25625 1.91058C7.09997 1.7543 6.88801 1.6665 6.66699 1.6665C6.44598 1.6665 6.23402 1.7543 6.07774 1.91058C5.92146 2.06686 5.83366 2.27882 5.83366 2.49984V3.33317H4.16699C3.50395 3.33317 2.86807 3.59656 2.39923 4.0654C1.93038 4.53424 1.66699 5.17013 1.66699 5.83317V15.8332C1.66699 16.4962 1.93038 17.1321 2.39923 17.6009C2.86807 18.0698 3.50395 18.3332 4.16699 18.3332H15.8337C16.4967 18.3332 17.1326 18.0698 17.6014 17.6009C18.0703 17.1321 18.3337 16.4962 18.3337 15.8332V5.83317C18.3337 5.17013 18.0703 4.53424 17.6014 4.0654C17.1326 3.59656 16.4967 3.33317 15.8337 3.33317ZM16.667 15.8332C16.667 16.0542 16.5792 16.2661 16.4229 16.4224C16.2666 16.5787 16.0547 16.6665 15.8337 16.6665H4.16699C3.94598 16.6665 3.73402 16.5787 3.57774 16.4224C3.42146 16.2661 3.33366 16.0542 3.33366 15.8332V9.99984H16.667V15.8332ZM16.667 8.33317H3.33366V5.83317C3.33366 5.61216 3.42146 5.4002 3.57774 5.24392C3.73402 5.08763 3.94598 4.99984 4.16699 4.99984H5.83366V5.83317C5.83366 6.05418 5.92146 6.26615 6.07774 6.42243C6.23402 6.57871 6.44598 6.6665 6.66699 6.6665C6.88801 6.6665 7.09997 6.57871 7.25625 6.42243C7.41253 6.26615 7.50033 6.05418 7.50033 5.83317V4.99984H12.5003V5.83317C12.5003 6.05418 12.5881 6.26615 12.7444 6.42243C12.9007 6.57871 13.1126 6.6665 13.3337 6.6665C13.5547 6.6665 13.7666 6.57871 13.9229 6.42243C14.0792 6.26615 14.167 6.05418 14.167 5.83317V4.99984H15.8337C16.0547 4.99984 16.2666 5.08763 16.4229 5.24392C16.5792 5.4002 16.667 5.61216 16.667 5.83317V8.33317Z" fill="url(#paint0_linear_417_8713)"/>
<defs>
<linearGradient id="paint0_linear_417_8713" x1="1.66699" y1="2.42778" x2="18.3337" y2="17.5719" gradientUnits="userSpaceOnUse">
<stop stop-color="#FF9537"/>
<stop offset="1" stop-color="#FF7600"/>
</linearGradient>
</defs>
</svg>
