<svg width="157" height="109" viewBox="0 0 157 109" fill="none" xmlns="http://www.w3.org/2000/svg">
<g filter="url(#filter0_i_23_6)">
<path d="M16.2836 51.1035C17.4671 51.1035 18.6302 51.1239 19.7729 51.1647C20.9156 51.1647 21.9767 51.2055 22.9562 51.2871C23.9357 51.3687 24.7927 51.4504 25.5273 51.532C26.3027 51.6136 26.8945 51.7156 27.3026 51.8381C27.9964 52.0013 28.6697 52.2666 29.3227 52.6339C30.0165 52.9604 30.5879 53.3889 31.0368 53.9194C31.5265 54.4092 31.8734 55.0009 32.0775 55.6947C32.3223 56.3477 32.3427 57.0823 32.1387 57.8985C31.9754 58.6739 31.3633 59.3473 30.3022 59.9186C29.2411 60.49 27.9351 60.9797 26.3843 61.3878C24.8335 61.7551 23.099 62.0204 21.1809 62.1836C19.3036 62.3877 17.4263 62.4897 15.549 62.4897C13.9982 62.4897 12.4882 62.4285 11.019 62.3061C9.54978 62.1836 8.24383 61.9796 7.10112 61.6939C6.16246 61.6939 5.26462 61.4286 4.40759 60.8981C3.55056 60.3676 2.87718 59.6534 2.38744 58.7555C1.89771 57.8577 1.67325 56.7966 1.71406 55.5723C1.75487 54.3479 2.2038 53.042 3.06083 51.6544L18.1201 26.5556C16.9366 26.5556 15.7531 26.5556 14.5695 26.5556C13.4268 26.5148 12.3657 26.474 11.3863 26.4332C10.4068 26.3516 9.54978 26.27 8.81518 26.1883C8.12139 26.1067 7.61126 26.0455 7.28477 26.0047C6.50936 25.8822 5.73395 25.6578 4.95854 25.3313C4.22394 24.964 3.57096 24.5355 2.99961 24.0458C2.46907 23.5152 2.06096 22.903 1.77528 22.2093C1.53041 21.4747 1.51001 20.6584 1.71406 19.7606C1.91812 18.9852 2.53028 18.3118 3.55056 17.7404C4.61165 17.1691 5.9176 16.6998 7.46842 16.3325C9.01924 15.9244 10.7537 15.6387 12.6718 15.4754C14.5899 15.2714 16.4877 15.1694 18.365 15.1694C20.079 15.1694 21.6911 15.251 23.2011 15.4142C24.7111 15.5367 26.0578 15.7611 27.2414 16.0876C28.1392 16.1284 28.9962 16.4345 29.8125 17.0058C30.6287 17.5364 31.2612 18.2506 31.7102 19.1484C32.1999 20.0463 32.4244 21.087 32.3835 22.2705C32.3835 23.4132 31.9958 24.6375 31.2204 25.9435L16.2836 51.1035ZM5.01976 18.7199C4.85651 18.8015 4.65246 18.9444 4.40759 19.1484C4.16272 19.3525 3.95867 19.5361 3.79543 19.6994C3.63218 19.8626 3.50975 20.0055 3.42813 20.1279C3.38731 20.2095 3.44853 20.2095 3.61178 20.1279C4.7953 19.3933 5.85638 18.9444 6.79504 18.7811C7.7745 18.6179 8.79478 18.5771 9.85586 18.6587C10.1007 18.6587 10.1211 18.5159 9.91708 18.2302C9.75383 17.9037 9.52937 17.6792 9.2437 17.5568C8.99883 17.4344 8.67234 17.414 8.26423 17.4956C7.89693 17.5364 7.50923 17.6384 7.10112 17.8017C6.69301 17.9241 6.3053 18.0873 5.938 18.2914C5.5707 18.4546 5.26462 18.5975 5.01976 18.7199ZM28.833 58.5719C28.9962 58.4494 29.1595 58.2658 29.3227 58.0209C29.5268 57.7352 29.69 57.4904 29.8125 57.2863C29.9349 57.0823 29.9961 56.9394 29.9961 56.8578C30.0369 56.7354 29.9961 56.7354 29.8737 56.8578C28.8942 57.8373 27.9555 58.5107 27.0577 58.878C26.1599 59.2044 25.1804 59.4697 24.1193 59.6738C23.9153 59.7146 23.9153 59.8574 24.1193 60.1023C24.3642 60.3472 24.6499 60.5104 24.9763 60.592C25.262 60.6736 25.5681 60.6532 25.8946 60.5308C26.2619 60.3676 26.6292 60.1635 26.9965 59.9186C27.3638 59.6738 27.7107 59.4289 28.0372 59.184C28.3637 58.9392 28.6289 58.7351 28.833 58.5719ZM60.8645 57.7761C60.538 59.2453 59.9667 60.3267 59.1505 61.0205C58.3343 61.6735 57.4364 62 56.4569 62C55.1102 62 53.9267 61.4899 52.9064 60.4696C51.8045 60.9593 50.6618 61.347 49.4783 61.6327C48.3356 61.8776 47.2337 61.9796 46.1726 61.9388C43.7239 61.898 41.663 61.3674 39.9897 60.3472C38.3573 59.3269 37.0513 58.0005 36.0718 56.3681C35.0924 54.6948 34.4394 52.8175 34.1129 50.7362C33.7864 48.6548 33.7048 46.5734 33.868 44.4921C34.0721 42.4107 34.4802 40.411 35.0924 38.4929C35.7454 36.5339 36.5616 34.8811 37.541 33.5343C38.0308 32.8405 38.745 32.2896 39.6836 31.8815C40.6223 31.4734 41.5813 31.2693 42.5608 31.2693C43.0097 31.2693 43.4382 31.3305 43.8463 31.453C44.2953 31.5346 44.7034 31.6774 45.0707 31.8815C45.5604 32.1671 45.9685 32.5753 46.295 33.1058C46.6215 33.5955 46.8255 34.1465 46.9072 34.7586C47.0296 35.33 47.0296 35.9218 46.9072 36.5339C46.7847 37.1461 46.5399 37.697 46.1726 38.1868C45.9277 38.5133 45.6828 39.0846 45.438 39.9008C45.2339 40.7171 45.0707 41.6557 44.9482 42.7168C44.8258 43.7371 44.7646 44.7982 44.7646 45.9001C44.7646 46.9611 44.8666 47.9202 45.0707 48.7772C45.3155 49.7567 45.6828 50.5525 46.1726 51.1647C46.6623 51.736 47.2132 52.1849 47.8254 52.5114C48.4784 52.7971 49.1314 52.9808 49.7843 53.0624C50.4781 53.1032 51.1107 53.1032 51.6821 53.0624C52.6207 47.961 52.4983 42.8596 51.3148 37.7583C51.0699 36.6564 51.0495 35.6565 51.2535 34.7586C51.4576 33.82 51.8045 33.0242 52.2942 32.3712C52.8248 31.7182 53.4369 31.2285 54.1307 30.902C54.8245 30.5347 55.5387 30.3511 56.2733 30.3511C57.2528 30.3511 58.171 30.6979 59.028 31.3917C59.8851 32.0447 60.4768 33.1262 60.8033 34.6362C62.5174 42.2679 62.5378 49.9812 60.8645 57.7761ZM35.3372 48.3487C35.3372 48.512 35.3781 48.7364 35.4597 49.0221C35.5821 49.3078 35.7045 49.5526 35.827 49.7567C35.9494 49.9607 36.0514 50.1036 36.1331 50.1852C36.2147 50.2668 36.2351 50.2056 36.1943 50.0016C35.9902 48.7364 35.9902 47.6345 36.1943 46.6959C36.3983 45.7164 36.7248 44.7369 37.1737 43.7575C37.2962 43.4718 37.1737 43.3698 36.8064 43.4514C36.4391 43.533 36.1331 43.6759 35.8882 43.8799C35.6433 44.084 35.4801 44.39 35.3985 44.7982C35.3168 45.1655 35.2556 45.5736 35.2148 46.0225C35.2148 46.4714 35.2352 46.9203 35.276 47.3692C35.3168 47.7774 35.3372 48.1038 35.3372 48.3487ZM60.3136 56.4905C60.3952 56.3273 60.436 56.1028 60.436 55.8171C60.436 55.4906 60.436 55.205 60.436 54.9601C60.436 54.7152 60.4156 54.552 60.3748 54.4704C60.334 54.3479 60.2932 54.3887 60.2524 54.5928C59.9259 55.8171 59.4566 56.8374 58.8444 57.6536C58.273 58.429 57.5997 59.184 56.8242 59.9186C56.6202 60.1227 56.6814 60.2655 57.0079 60.3472C57.3752 60.4288 57.7221 60.4288 58.0486 60.3472C58.3343 60.2655 58.5995 60.0615 58.8444 59.735C59.0893 59.4085 59.2933 59.0412 59.4566 58.6331C59.6606 58.225 59.8239 57.8373 59.9463 57.47C60.1095 57.0619 60.232 56.7354 60.3136 56.4905ZM113.278 49.573C112.258 49.573 111.319 49.3078 110.462 48.7772C110.707 49.8791 111.217 50.879 111.992 51.7768C112.319 52.1033 112.666 52.3686 113.033 52.5727C113.4 52.7359 113.849 52.8379 114.38 52.8787C114.747 52.8787 115.053 52.8583 115.298 52.8175C115.543 52.7359 115.829 52.6339 116.155 52.5114C116.686 52.3074 117.094 52.1033 117.379 51.8993C117.665 51.6544 117.91 51.4299 118.114 51.2259C118.359 50.981 118.583 50.7566 118.787 50.5525C119.032 50.3076 119.359 50.0628 119.767 49.8179C120.297 49.5322 120.848 49.3894 121.42 49.3894C122.236 49.3894 122.991 49.6547 123.685 50.1852C124.378 50.6749 124.909 51.3075 125.276 52.0829C125.644 52.8583 125.766 53.7358 125.644 54.7152C125.562 55.6539 125.154 56.5517 124.419 57.4088C123.113 58.9188 121.46 60.0819 119.461 60.8981C117.502 61.6735 115.482 62.0612 113.4 62.0612C111.605 62.0612 109.87 61.7755 108.197 61.2042C106.564 60.592 105.116 59.6738 103.85 58.4494C102.218 56.817 101.116 54.9601 100.545 52.8787C99.9735 50.7566 99.7694 48.5732 99.9326 46.3286C100.055 44.1656 100.565 42.1454 101.463 40.2681C102.361 38.3908 103.544 36.7788 105.014 35.432C106.483 34.0853 108.197 33.0446 110.156 32.31C112.156 31.5754 114.278 31.2489 116.522 31.3305C117.747 31.3713 118.91 31.6366 120.012 32.1263C121.114 32.5753 122.073 33.2078 122.889 34.024C123.705 34.7995 124.358 35.7177 124.848 36.7788C125.378 37.8399 125.664 39.003 125.705 40.2681C125.746 41.7373 125.46 43.0433 124.848 44.186C124.236 45.3287 123.379 46.3082 122.277 47.1244C121.175 47.8998 119.848 48.512 118.298 48.9609C116.788 49.369 115.114 49.573 113.278 49.573ZM112.115 40.7579C112.074 41.6965 112.339 42.3699 112.911 42.778C113.482 43.1453 114.237 43.3698 115.176 43.4514C116.114 43.4922 116.849 43.3494 117.379 43.0229C117.951 42.6964 118.277 42.0638 118.359 41.1252C118.44 40.1865 118.277 39.5131 117.869 39.105C117.461 38.6969 116.767 38.4316 115.788 38.3092C114.727 38.1868 113.849 38.3092 113.155 38.6765C112.502 39.003 112.156 39.6968 112.115 40.7579ZM122.399 42.3495C122.44 42.1454 122.46 41.9006 122.46 41.6149C122.501 41.3292 122.501 41.0639 122.46 40.8191C122.46 40.5742 122.44 40.411 122.399 40.3293C122.358 40.2069 122.317 40.2477 122.277 40.4518C121.991 41.6761 121.562 42.6964 120.991 43.5126C120.461 44.288 119.787 45.0838 118.971 45.9001C118.767 46.1041 118.849 46.2265 119.216 46.2674C119.583 46.3082 119.91 46.2878 120.195 46.2061C120.481 46.0837 120.746 45.8796 120.991 45.594C121.236 45.2675 121.44 44.9002 121.603 44.4921C121.807 44.084 121.971 43.6963 122.093 43.329C122.215 42.9208 122.317 42.5944 122.399 42.3495ZM109.054 60.4696C109.217 60.5512 109.442 60.6328 109.727 60.7145C110.013 60.7553 110.278 60.7961 110.523 60.8369C110.768 60.8369 110.952 60.8369 111.074 60.8369C111.196 60.8369 111.176 60.7961 111.013 60.7145C109.789 60.2247 108.829 59.633 108.136 58.9392C107.442 58.2454 106.768 57.47 106.116 56.6129C105.911 56.3681 105.748 56.4293 105.626 56.7966C105.503 57.1231 105.483 57.4496 105.565 57.7761C105.646 58.0617 105.83 58.3474 106.116 58.6331C106.401 58.878 106.728 59.1228 107.095 59.3677C107.462 59.6126 107.83 59.837 108.197 60.0411C108.564 60.2043 108.85 60.3472 109.054 60.4696ZM135.853 21.2298C136.139 19.3933 136.853 18.0669 137.995 17.2507C139.138 16.3937 140.362 15.9652 141.668 15.9652C142.485 15.9652 143.28 16.1284 144.056 16.4549C144.831 16.7406 145.484 17.1895 146.015 17.8017C146.586 18.373 147.015 19.1076 147.3 20.0055C147.586 20.8625 147.627 21.842 147.423 22.9439C147.219 24.1274 146.974 25.3721 146.688 26.6781C146.443 27.984 146.158 29.3104 145.831 30.6571C147.015 30.902 148.137 31.2489 149.198 31.6978C150.259 32.1059 151.096 32.6569 151.708 33.3507C152.32 34.0036 152.606 34.8199 152.565 35.7993C152.524 36.738 151.973 37.8399 150.912 39.105C149.851 40.3702 148.708 41.1048 147.484 41.3088C146.26 41.4721 144.995 41.5129 143.689 41.4312C143.566 42.3291 143.464 43.2065 143.383 44.0636C143.301 44.8798 143.26 45.696 143.26 46.5122C143.26 46.8795 143.28 47.2672 143.321 47.6753C143.362 48.0834 143.423 48.4711 143.505 48.8384C143.627 49.2057 143.77 49.5118 143.933 49.7567C144.138 50.0016 144.403 50.124 144.729 50.124C145.219 50.124 145.77 49.8383 146.382 49.267C146.423 49.2262 146.586 49.0629 146.872 48.7772C147.158 48.4916 147.525 48.1855 147.974 47.859C148.463 47.4917 149.014 47.1856 149.627 46.9407C150.239 46.6551 150.851 46.5122 151.463 46.5122C152.402 46.5122 153.218 46.8591 153.912 47.5529C155.218 48.8589 155.83 50.2668 155.748 51.7768C155.667 53.2868 155.075 54.6948 153.973 56.0008C152.177 58.0413 150.239 59.5717 148.157 60.592C146.076 61.6123 144.035 62.1224 142.036 62.1224C140.607 62.1224 139.261 61.8572 137.995 61.3266C136.73 60.7553 135.628 59.9186 134.69 58.8167C133.792 57.674 133.098 56.2456 132.608 54.5316C132.119 52.8175 131.935 50.8178 132.057 48.5324C132.139 47.5937 132.221 46.6142 132.302 45.594C132.384 44.5329 132.486 43.4514 132.608 42.3495C131.833 42.2679 131.078 42.0026 130.343 41.5537C129.65 41.1048 129.017 40.411 128.446 39.4723C127.67 38.1664 127.446 36.8604 127.772 35.5545C128.14 34.2077 129.119 33.1874 130.711 32.4936C131.364 32.208 131.976 31.9631 132.547 31.759C133.119 31.555 133.669 31.3509 134.2 31.1469C134.527 28.9431 134.853 26.9637 135.179 25.2089C135.506 23.454 135.73 22.1276 135.853 21.2298ZM137.383 21.2298C137.342 21.393 137.281 21.6175 137.2 21.9032C137.159 22.1888 137.138 22.4541 137.138 22.699C137.138 22.9439 137.138 23.1275 137.138 23.2499C137.179 23.3316 137.22 23.2907 137.261 23.1275C137.71 21.944 138.261 20.9849 138.914 20.2503C139.607 19.4749 140.383 18.7607 141.24 18.1077C141.485 17.9037 141.424 17.7609 141.056 17.6792C140.73 17.5568 140.403 17.5364 140.077 17.618C139.791 17.6588 139.505 17.8425 139.22 18.169C138.934 18.4546 138.669 18.8015 138.424 19.2096C138.22 19.5769 138.016 19.9442 137.812 20.3115C137.649 20.6788 137.506 20.9849 137.383 21.2298ZM132.853 40.3906C132.2 39.9825 131.629 39.5131 131.139 38.9826C130.69 38.452 130.221 37.8807 129.731 37.2685C129.568 37.0645 129.405 37.1461 129.241 37.5134C129.119 37.8399 129.099 38.1664 129.18 38.4929C129.221 38.7785 129.384 39.0642 129.67 39.3499C129.996 39.5947 130.343 39.8396 130.711 40.0845C131.119 40.3293 131.507 40.5334 131.874 40.6966C132.282 40.8599 132.588 41.0027 132.792 41.1252L132.853 40.3906ZM148.525 59.4901C148.647 59.4085 148.831 59.2453 149.076 59.0004C149.321 58.7147 149.545 58.4494 149.749 58.2046C149.953 57.9597 150.096 57.7761 150.178 57.6536C150.3 57.4904 150.259 57.47 150.055 57.5924C148.994 58.2862 147.994 58.7759 147.056 59.0616C146.117 59.3473 145.097 59.5309 143.995 59.6126C143.709 59.6534 143.689 59.837 143.933 60.1635C144.178 60.4492 144.464 60.6328 144.79 60.7145C145.239 60.8777 145.831 60.7961 146.566 60.4696C147.341 60.1023 147.994 59.7758 148.525 59.4901Z" fill="white"/>
</g>
<g filter="url(#filter1_i_23_6)">
<path d="M74.0029 52.9378C68.1341 52.9378 66.1115 58.1055 66.0527 60.1314V67.9059L65.5018 73.5174L65.4916 74.0191L65.6446 74.5209L66.4404 75.3743L68.9095 76.721L71.5214 77.5373L72.7661 77.5985L73.562 77.476L74.3578 77.1292L75.6841 76.5819L76.8472 75.3743C77.9695 72.5787 78.5001 62.5021 78.5001 62.5021C78.5001 62.5021 80.7447 62.9881 85.1523 62.2535C99.9463 60.2742 96.5525 44.2175 96.6406 44.2175C96.4291 35.4797 88.4489 31.3253 84.3361 31.2372C78.1001 31.2372 71.7867 23.8912 68.1862 33.031C67.6221 33.031 65.1753 32.7064 65.1753 34.8897L65.8691 36.8895C65.7671 37.6278 65.0937 37.3217 65.5018 38.2279L65.8691 38.5831C65.5018 40.4809 65.1753 40.6441 66.318 46.4597C66.7586 54.0348 72.7691 51.4403 72.7691 51.4403C77.5002 49.0344 77.7926 45.803 77.7926 45.803C78.2333 41.9274 74.6199 37.7875 74.5317 37.6994C73.7385 36.3781 76.5588 35.7616 76.5588 35.7616C80.1722 35.2331 81.0535 38.2279 81.0535 38.2279C82.2874 42.8082 86.9584 42.2797 86.9584 42.2797C88.9855 42.3468 88.9855 44.2175 88.9855 44.2175C89.056 47.6704 88.2501 48.69 87.7516 49.6787C85.9888 53.1752 74.0029 52.9378 74.0029 52.9378Z" fill="white"/>
</g>
<circle cx="80" cy="39" r="1" fill="white"/>
<path d="M76.4798 70.8479C76.5954 72.8341 76.0676 76.7696 73.0312 76.6227C73.725 76.1602 75.386 74.3577 76.4798 70.8479Z" fill="url(#paint0_linear_23_6)"/>
<ellipse cx="69" cy="66.5" rx="1" ry="1.5" fill="url(#paint1_linear_23_6)"/>
<ellipse cx="1" cy="1.5" rx="1" ry="1.5" transform="matrix(0.939885 0.341492 -0.304107 0.952638 71 65)" fill="url(#paint2_linear_23_6)"/>
<ellipse cx="1" cy="1.5" rx="1" ry="1.5" transform="matrix(0.702089 0.712089 -0.665292 0.746584 73 66)" fill="url(#paint3_linear_23_6)"/>
<ellipse cx="1" cy="1.5" rx="1" ry="1.5" transform="matrix(0.306401 0.951903 -0.93897 0.343999 74 69)" fill="url(#paint4_linear_23_6)"/>
<path d="M69.9779 68.4748C69.606 68.855 69.0956 68.8961 68.8869 68.8692C68.5834 68.7984 68.2513 68.7074 68.2039 68.7175C67.3596 68.6265 67.0466 69.5668 67.0561 69.5769C66.5533 71.0532 68.4411 71.5891 68.4695 71.579C69.1431 71.8419 69.4466 72.5699 69.4751 72.5699C69.6648 72.8328 69.9779 72.9946 69.9779 73.0047C70.9455 73.5608 71.6475 72.58 71.6475 72.5699C72.1104 72.0036 71.7392 71.2285 71.4957 70.9116C71.0973 70.4465 71.4103 69.6578 71.3914 69.6882C71.4388 69.5972 71.4957 69.1118 71.4957 69.0916C71.5336 68.677 71.0783 68.3333 71.0688 68.3231C70.4712 67.9996 69.9589 68.4849 69.9779 68.4748Z" fill="url(#paint5_linear_23_6)"/>
<path d="M95.0488 49.5854C95.0488 53.9726 90.8861 61.0533 85.7439 61.0533C86.8232 60.2661 92.2124 58.7475 95.0488 49.5854Z" fill="url(#paint6_linear_23_6)"/>
<path d="M33.0341 102V96.05L28.1641 87.6H30.6041L34.0941 93.65L37.5841 87.6H40.0241L35.1541 96.05V102H33.0341ZM45.208 102.3C44.128 102.3 43.1913 102.057 42.398 101.57C41.6046 101.083 40.9913 100.413 40.558 99.56C40.1313 98.7 39.918 97.71 39.918 96.59C39.918 95.4633 40.138 94.4733 40.578 93.62C41.018 92.76 41.6346 92.0933 42.428 91.62C43.2213 91.14 44.148 90.9 45.208 90.9C46.288 90.9 47.2246 91.1433 48.018 91.63C48.8113 92.1167 49.4246 92.7867 49.858 93.64C50.2913 94.4933 50.508 95.4767 50.508 96.59C50.508 97.7167 50.288 98.71 49.848 99.57C49.4146 100.423 48.8013 101.093 48.008 101.58C47.2146 102.06 46.2813 102.3 45.208 102.3ZM45.208 100.33C46.2413 100.33 47.0113 99.9833 47.518 99.29C48.0313 98.59 48.288 97.69 48.288 96.59C48.288 95.4633 48.028 94.5633 47.508 93.89C46.9946 93.21 46.228 92.87 45.208 92.87C44.508 92.87 43.9313 93.03 43.478 93.35C43.0246 93.6633 42.688 94.1 42.468 94.66C42.248 95.2133 42.138 95.8567 42.138 96.59C42.138 97.7233 42.398 98.63 42.918 99.31C43.438 99.99 44.2013 100.33 45.208 100.33ZM57.4755 102.29C56.7288 102.29 56.1021 102.17 55.5955 101.93C55.0888 101.69 54.6755 101.377 54.3555 100.99C54.0421 100.597 53.8021 100.17 53.6355 99.71C53.4688 99.25 53.3555 98.8 53.2955 98.36C53.2355 97.92 53.2055 97.5333 53.2055 97.2V91.2H55.3255V96.51C55.3255 96.93 55.3588 97.3633 55.4255 97.81C55.4988 98.25 55.6321 98.66 55.8255 99.04C56.0255 99.42 56.3021 99.7267 56.6555 99.96C57.0155 100.193 57.4821 100.31 58.0555 100.31C58.4288 100.31 58.7821 100.25 59.1155 100.13C59.4488 100.003 59.7388 99.8033 59.9855 99.53C60.2388 99.2567 60.4355 98.8967 60.5755 98.45C60.7221 98.0033 60.7955 97.46 60.7955 96.82L62.0955 97.31C62.0955 98.29 61.9121 99.1567 61.5455 99.91C61.1788 100.657 60.6521 101.24 59.9655 101.66C59.2788 102.08 58.4488 102.29 57.4755 102.29ZM61.0455 102V98.88H60.7955V91.2H62.9055V102H61.0455ZM66.4102 102V91.2H68.2702V93.82L68.0102 93.48C68.1435 93.1333 68.3168 92.8167 68.5302 92.53C68.7435 92.2367 68.9902 91.9967 69.2702 91.81C69.5435 91.61 69.8468 91.4567 70.1802 91.35C70.5202 91.2367 70.8668 91.17 71.2202 91.15C71.5735 91.1233 71.9135 91.14 72.2402 91.2V93.16C71.8868 93.0667 71.4935 93.04 71.0602 93.08C70.6335 93.12 70.2402 93.2567 69.8802 93.49C69.5402 93.71 69.2702 93.9767 69.0702 94.29C68.8768 94.6033 68.7368 94.9533 68.6502 95.34C68.5635 95.72 68.5202 96.1233 68.5202 96.55V102H66.4102ZM79.5484 102V87.6H85.3684C85.5084 87.6 85.6818 87.6067 85.8884 87.62C86.0951 87.6267 86.2918 87.6467 86.4784 87.68C87.2784 87.8067 87.9451 88.08 88.4784 88.5C89.0184 88.92 89.4218 89.45 89.6884 90.09C89.9551 90.73 90.0884 91.4367 90.0884 92.21C90.0884 92.99 89.9551 93.7 89.6884 94.34C89.4218 94.98 89.0184 95.51 88.4784 95.93C87.9451 96.35 87.2784 96.6233 86.4784 96.75C86.2918 96.7767 86.0918 96.7967 85.8784 96.81C85.6718 96.8233 85.5018 96.83 85.3684 96.83H81.6384V102H79.5484ZM81.6384 94.85H85.2884C85.4218 94.85 85.5684 94.8433 85.7284 94.83C85.8951 94.8167 86.0518 94.7933 86.1984 94.76C86.6251 94.66 86.9684 94.4767 87.2284 94.21C87.4884 93.9367 87.6751 93.6233 87.7884 93.27C87.9018 92.9167 87.9584 92.5633 87.9584 92.21C87.9584 91.8567 87.9018 91.5067 87.7884 91.16C87.6751 90.8067 87.4884 90.4967 87.2284 90.23C86.9684 89.9567 86.6251 89.77 86.1984 89.67C86.0518 89.63 85.8951 89.6033 85.7284 89.59C85.5684 89.5767 85.4218 89.57 85.2884 89.57H81.6384V94.85ZM97.4408 102.3C96.3674 102.3 95.4241 102.067 94.6108 101.6C93.8041 101.127 93.1741 100.47 92.7208 99.63C92.2741 98.7833 92.0508 97.8033 92.0508 96.69C92.0508 95.51 92.2708 94.4867 92.7108 93.62C93.1574 92.7533 93.7774 92.0833 94.5708 91.61C95.3641 91.1367 96.2874 90.9 97.3408 90.9C98.4408 90.9 99.3774 91.1567 100.151 91.67C100.924 92.1767 101.501 92.9 101.881 93.84C102.267 94.78 102.421 95.8967 102.341 97.19H100.251V96.43C100.237 95.1767 99.9974 94.25 99.5308 93.65C99.0708 93.05 98.3674 92.75 97.4208 92.75C96.3741 92.75 95.5874 93.08 95.0608 93.74C94.5341 94.4 94.2708 95.3533 94.2708 96.6C94.2708 97.7867 94.5341 98.7067 95.0608 99.36C95.5874 100.007 96.3474 100.33 97.3408 100.33C97.9941 100.33 98.5574 100.183 99.0308 99.89C99.5108 99.59 99.8841 99.1633 100.151 98.61L102.201 99.26C101.781 100.227 101.144 100.977 100.291 101.51C99.4374 102.037 98.4874 102.3 97.4408 102.3ZM93.5908 97.19V95.56H101.301V97.19H93.5908ZM111.464 102C110.784 102.133 110.118 102.19 109.464 102.17C108.811 102.15 108.228 102.023 107.714 101.79C107.201 101.557 106.814 101.19 106.554 100.69C106.321 100.243 106.194 99.79 106.174 99.33C106.161 98.8633 106.154 98.3367 106.154 97.75V88.2H108.254V97.65C108.254 98.0833 108.258 98.46 108.264 98.78C108.278 99.1 108.348 99.37 108.474 99.59C108.714 100.003 109.094 100.24 109.614 100.3C110.141 100.353 110.758 100.33 111.464 100.23V102ZM104.084 92.88V91.2H111.464V92.88H104.084ZM114.641 92.4L114.771 91.47C115.058 91.49 115.281 91.4367 115.441 91.31C115.601 91.1833 115.708 91.0067 115.761 90.78C115.815 90.5533 115.825 90.2967 115.791 90.01H114.641V87.6H116.851V90.21C116.851 90.9967 116.661 91.59 116.281 91.99C115.908 92.39 115.361 92.5267 114.641 92.4ZM122.943 102.29C121.63 102.29 120.56 102 119.733 101.42C118.907 100.84 118.4 100.023 118.213 98.97L120.353 98.64C120.487 99.2 120.793 99.6433 121.273 99.97C121.76 100.29 122.363 100.45 123.083 100.45C123.737 100.45 124.247 100.317 124.613 100.05C124.987 99.7833 125.173 99.4167 125.173 98.95C125.173 98.6767 125.107 98.4567 124.973 98.29C124.847 98.1167 124.577 97.9533 124.163 97.8C123.75 97.6467 123.12 97.4567 122.273 97.23C121.347 96.99 120.61 96.7333 120.063 96.46C119.523 96.18 119.137 95.8567 118.903 95.49C118.677 95.1167 118.563 94.6667 118.563 94.14C118.563 93.4867 118.737 92.9167 119.083 92.43C119.43 91.9433 119.917 91.5667 120.543 91.3C121.177 91.0333 121.917 90.9 122.763 90.9C123.59 90.9 124.327 91.03 124.973 91.29C125.62 91.55 126.143 91.92 126.543 92.4C126.943 92.8733 127.183 93.43 127.263 94.07L125.123 94.46C125.05 93.94 124.807 93.53 124.393 93.23C123.98 92.93 123.443 92.7667 122.783 92.74C122.15 92.7133 121.637 92.82 121.243 93.06C120.85 93.2933 120.653 93.6167 120.653 94.03C120.653 94.27 120.727 94.4733 120.873 94.64C121.027 94.8067 121.32 94.9667 121.753 95.12C122.187 95.2733 122.827 95.4567 123.673 95.67C124.58 95.9033 125.3 96.1633 125.833 96.45C126.367 96.73 126.747 97.0667 126.973 97.46C127.207 97.8467 127.323 98.3167 127.323 98.87C127.323 99.9367 126.933 100.773 126.153 101.38C125.38 101.987 124.31 102.29 122.943 102.29Z" fill="white"/>
<defs>
<filter id="filter0_i_23_6" x="1.40796" y="15.1693" width="154.463" height="47.8918" filterUnits="userSpaceOnUse" color-interpolation-filters="sRGB">
<feFlood flood-opacity="0" result="BackgroundImageFix"/>
<feBlend mode="normal" in="SourceGraphic" in2="BackgroundImageFix" result="shape"/>
<feColorMatrix in="SourceAlpha" type="matrix" values="0 0 0 0 0 0 0 0 0 0 0 0 0 0 0 0 0 0 127 0" result="hardAlpha"/>
<feOffset dy="0.571354"/>
<feGaussianBlur stdDeviation="0.489732"/>
<feComposite in2="hardAlpha" operator="arithmetic" k2="-1" k3="1"/>
<feColorMatrix type="matrix" values="0 0 0 0 0 0 0 0 0 0 0 0 0 0 0 0 0 0 0.25 0"/>
<feBlend mode="normal" in2="shape" result="effect1_innerShadow_23_6"/>
</filter>
<filter id="filter1_i_23_6" x="65.1753" y="28.4453" width="31.7417" height="49.7246" filterUnits="userSpaceOnUse" color-interpolation-filters="sRGB">
<feFlood flood-opacity="0" result="BackgroundImageFix"/>
<feBlend mode="normal" in="SourceGraphic" in2="BackgroundImageFix" result="shape"/>
<feColorMatrix in="SourceAlpha" type="matrix" values="0 0 0 0 0 0 0 0 0 0 0 0 0 0 0 0 0 0 127 0" result="hardAlpha"/>
<feOffset dy="0.571354"/>
<feGaussianBlur stdDeviation="0.489732"/>
<feComposite in2="hardAlpha" operator="arithmetic" k2="-1" k3="1"/>
<feColorMatrix type="matrix" values="0 0 0 0 0 0 0 0 0 0 0 0 0 0 0 0 0 0 0.25 0"/>
<feBlend mode="normal" in2="shape" result="effect1_innerShadow_23_6"/>
</filter>
<linearGradient id="paint0_linear_23_6" x1="73.0312" y1="71.1119" x2="77.9076" y2="73.7671" gradientUnits="userSpaceOnUse">
<stop stop-color="#FF9537"/>
<stop offset="1" stop-color="#FF7600"/>
</linearGradient>
<linearGradient id="paint1_linear_23_6" x1="68" y1="65.137" x2="70.6711" y2="66.7551" gradientUnits="userSpaceOnUse">
<stop stop-color="#FF9537"/>
<stop offset="1" stop-color="#FF7600"/>
</linearGradient>
<linearGradient id="paint2_linear_23_6" x1="-1.61119e-08" y1="0.13703" x2="2.67111" y2="1.75509" gradientUnits="userSpaceOnUse">
<stop stop-color="#FF9537"/>
<stop offset="1" stop-color="#FF7600"/>
</linearGradient>
<linearGradient id="paint3_linear_23_6" x1="-1.61119e-08" y1="0.13703" x2="2.67111" y2="1.75509" gradientUnits="userSpaceOnUse">
<stop stop-color="#FF9537"/>
<stop offset="1" stop-color="#FF7600"/>
</linearGradient>
<linearGradient id="paint4_linear_23_6" x1="-1.61119e-08" y1="0.13703" x2="2.67111" y2="1.75509" gradientUnits="userSpaceOnUse">
<stop stop-color="#FF9537"/>
<stop offset="1" stop-color="#FF7600"/>
</linearGradient>
<linearGradient id="paint5_linear_23_6" x1="66.9709" y1="68.4385" x2="71.9276" y2="72.8823" gradientUnits="userSpaceOnUse">
<stop stop-color="#FF9537"/>
<stop offset="1" stop-color="#FF7600"/>
</linearGradient>
<linearGradient id="paint6_linear_23_6" x1="85.7439" y1="50.1092" x2="96.7492" y2="58.2231" gradientUnits="userSpaceOnUse">
<stop stop-color="#FF9537"/>
<stop offset="1" stop-color="#FF7600"/>
</linearGradient>
</defs>
</svg>
