<svg width="16" height="17" viewBox="0 0 16 17" fill="none" xmlns="http://www.w3.org/2000/svg">
<g clip-path="url(#clip0_2004_1888)">
<path d="M7.23438 2.04297C9.22559 0.0521018 12.4659 0.0518749 14.457 2.04297C16.4481 4.03404 16.4479 7.27444 14.457 9.26562C13.0967 10.626 11.0904 11.0984 9.27148 10.5088L9.24316 10.499L9.2207 10.5205L8.05664 11.6719C7.97821 11.7494 7.87196 11.793 7.76172 11.793H6.85449V12.7158C6.85449 12.7749 6.84254 12.8338 6.81836 12.8877C6.79418 12.9416 6.75895 12.99 6.71484 13.0293C6.67084 13.0685 6.61866 13.0974 6.5625 13.1152C6.50619 13.133 6.44636 13.1386 6.3877 13.1318L5.67578 13.0498L5.625 13.0439L5.62012 13.0947L5.52734 14.0811C5.5182 14.178 5.47503 14.269 5.40625 14.3379C5.33735 14.4068 5.24641 14.4498 5.14941 14.459L4.16211 14.5518L4.11133 14.5566L4.11719 14.6074L4.2002 15.3193C4.20749 15.3821 4.20044 15.4462 4.17969 15.5059C4.15893 15.5655 4.1247 15.6194 4.08008 15.6641L3.41699 16.3271C3.33844 16.4057 3.23212 16.4501 3.12109 16.4502H0.46875C0.237507 16.4502 0.0498407 16.2625 0.0498047 16.0312V13.3789C0.0498337 13.324 0.0610067 13.2695 0.0820312 13.2188C0.103082 13.168 0.133988 13.1219 0.172852 13.083L6 7.25586L5.99023 7.22656C5.40159 5.40812 5.87445 3.40289 7.23438 2.04297ZM13.8643 2.63574C12.1996 0.971104 9.49088 0.971097 7.82617 2.63574C6.62899 3.8331 6.25541 5.62898 6.87402 7.21094C6.90362 7.28661 6.91108 7.36967 6.89453 7.44922C6.87785 7.52891 6.83785 7.60259 6.78027 7.66016L0.887695 13.5527V15.6123H2.94727L3.34473 15.2148L3.3418 15.1914L3.22949 14.2285C3.22306 14.1732 3.22767 14.117 3.24316 14.0635C3.25868 14.01 3.28533 13.9603 3.32031 13.917C3.3554 13.8736 3.39909 13.8369 3.44824 13.8105C3.49726 13.7843 3.5511 13.7679 3.60645 13.7627L4.68457 13.6611L4.72559 13.6572L4.72949 13.6162L4.83105 12.5391C4.8363 12.4835 4.85255 12.429 4.87891 12.3799C4.9052 12.3309 4.94121 12.2879 4.98438 12.2529C5.02761 12.2179 5.07745 12.1913 5.13086 12.1758C5.18427 12.1603 5.24065 12.1558 5.2959 12.1621L5.96094 12.2393L6.01758 12.2461V11.374C6.01768 11.1429 6.2045 10.9553 6.43555 10.9551H7.58984L7.60449 10.9414L8.8418 9.71777C8.89939 9.66088 8.97246 9.62182 9.05176 9.60547C9.13105 9.58915 9.21367 9.59649 9.28906 9.62598C10.871 10.2445 12.6669 9.87099 13.8643 8.67383C15.5289 7.00918 15.5289 4.30036 13.8643 2.63574Z" fill="black" stroke="white" stroke-width="0.1"/>
<path d="M11.2119 3.36914C11.7407 2.84031 12.602 2.8403 13.1309 3.36914C13.6597 3.89799 13.6597 4.75924 13.1309 5.28809C12.602 5.81699 11.7407 5.81694 11.2119 5.28809C10.6831 4.75923 10.6831 3.89798 11.2119 3.36914ZM12.5381 3.96191C12.3353 3.75919 12.0075 3.75916 11.8047 3.96191C11.6024 4.16423 11.6024 4.493 11.8047 4.69531C12.007 4.89765 12.3358 4.89762 12.5381 4.69531C12.7408 4.49254 12.7409 4.16469 12.5381 3.96191Z" fill="black" stroke="white" stroke-width="0.1"/>
</g>
<defs>
<clipPath id="clip0_2004_1888">
<rect width="16" height="16" fill="white" transform="translate(0 0.5)"/>
</clipPath>
</defs>
</svg>
