<svg width="24" height="24" viewBox="0 0 24 24" fill="none" xmlns="http://www.w3.org/2000/svg">
<path d="M4.40991 16.75C4.16991 19.64 6.34991 22 9.24991 22H14.0399C17.2999 22 19.5399 19.37 18.9999 16.15C18.4299 12.77 15.1699 10 11.7399 10C8.01991 10 4.71991 13.04 4.40991 16.75Z" stroke="#141415" stroke-width="1.5" stroke-linecap="round" stroke-linejoin="round"/>
<path d="M10.47 7.49988C11.8507 7.49988 12.97 6.38059 12.97 4.99988C12.97 3.61917 11.8507 2.49988 10.47 2.49988C9.08926 2.49988 7.96997 3.61917 7.96997 4.99988C7.96997 6.38059 9.08926 7.49988 10.47 7.49988Z" stroke="#141415" stroke-width="1.5" stroke-linecap="round" stroke-linejoin="round"/>
<path d="M17.2998 8.69995C18.4044 8.69995 19.2998 7.80452 19.2998 6.69995C19.2998 5.59538 18.4044 4.69995 17.2998 4.69995C16.1952 4.69995 15.2998 5.59538 15.2998 6.69995C15.2998 7.80452 16.1952 8.69995 17.2998 8.69995Z" stroke="#141415" stroke-width="1.5" stroke-linecap="round" stroke-linejoin="round"/>
<path d="M20.9998 12.7C21.8282 12.7 22.4998 12.0284 22.4998 11.2C22.4998 10.3715 21.8282 9.69995 20.9998 9.69995C20.1713 9.69995 19.4998 10.3715 19.4998 11.2C19.4998 12.0284 20.1713 12.7 20.9998 12.7Z" stroke="#141415" stroke-width="1.5" stroke-linecap="round" stroke-linejoin="round"/>
<path d="M3.96997 10.6998C5.07454 10.6998 5.96997 9.8044 5.96997 8.69983C5.96997 7.59526 5.07454 6.69983 3.96997 6.69983C2.8654 6.69983 1.96997 7.59526 1.96997 8.69983C1.96997 9.8044 2.8654 10.6998 3.96997 10.6998Z" stroke="#141415" stroke-width="1.5" stroke-linecap="round" stroke-linejoin="round"/>
</svg>
