<svg width="18" height="19" viewBox="0 0 18 19" fill="none" xmlns="http://www.w3.org/2000/svg">
<path d="M10.5378 17.603C10.3815 17.8758 10.1572 18.1023 9.88731 18.2597C9.61743 18.4171 9.31145 18.5 9 18.5C8.68855 18.5 8.38257 18.4171 8.11269 18.2597C7.84281 18.1023 7.6185 17.8758 7.46222 17.603M14.3333 5.90096C14.3333 4.46853 13.7714 3.09478 12.7712 2.0819C11.771 1.06903 10.4145 0.5 9 0.5C7.58551 0.5 6.22896 1.06903 5.22876 2.0819C4.22857 3.09478 3.66667 4.46853 3.66667 5.90096C3.66667 12.2021 1 14.0024 1 14.0024H17C17 14.0024 14.3333 12.2021 14.3333 5.90096Z" stroke="black" stroke-linecap="round" stroke-linejoin="round"/>
</svg>
