<svg width="25" height="24" viewBox="0 0 25 24" fill="none" xmlns="http://www.w3.org/2000/svg">
<path d="M12.5 3.75C12.0027 3.75 11.5258 3.94754 11.1742 4.29917C10.8225 4.65081 10.625 5.12772 10.625 5.625C10.625 6.12228 10.8225 6.59919 11.1742 6.95083C11.5258 7.30246 12.0027 7.5 12.5 7.5C12.9973 7.5 13.4742 7.30246 13.8258 6.95083C14.1775 6.59919 14.375 6.12228 14.375 5.625C14.375 5.12772 14.1775 4.65081 13.8258 4.29917C13.4742 3.94754 12.9973 3.75 12.5 3.75ZM9.125 5.625C9.125 4.72989 9.48058 3.87145 10.1135 3.23851C10.7465 2.60558 11.6049 2.25 12.5 2.25C13.3951 2.25 14.2535 2.60558 14.8865 3.23851C15.5194 3.87145 15.875 4.72989 15.875 5.625C15.875 6.52011 15.5194 7.37855 14.8865 8.01149C14.2535 8.64442 13.3951 9 12.5 9C11.6049 9 10.7465 8.64442 10.1135 8.01149C9.48058 7.37855 9.125 6.52011 9.125 5.625ZM5 6C4.60218 6 4.22064 6.15804 3.93934 6.43934C3.65804 6.72064 3.5 7.10218 3.5 7.5C3.5 7.89782 3.65804 8.27936 3.93934 8.56066C4.22064 8.84196 4.60218 9 5 9C5.39782 9 5.77936 8.84196 6.06066 8.56066C6.34196 8.27936 6.5 7.89782 6.5 7.5C6.5 7.10218 6.34196 6.72064 6.06066 6.43934C5.77936 6.15804 5.39782 6 5 6ZM2 7.5C2 6.70435 2.31607 5.94129 2.87868 5.37868C3.44129 4.81607 4.20435 4.5 5 4.5C5.79565 4.5 6.55871 4.81607 7.12132 5.37868C7.68393 5.94129 8 6.70435 8 7.5C8 8.29565 7.68393 9.05871 7.12132 9.62132C6.55871 10.1839 5.79565 10.5 5 10.5C4.20435 10.5 3.44129 10.1839 2.87868 9.62132C2.31607 9.05871 2 8.29565 2 7.5ZM18.5 7.5C18.5 7.10218 18.658 6.72064 18.9393 6.43934C19.2206 6.15804 19.6022 6 20 6C20.3978 6 20.7794 6.15804 21.0607 6.43934C21.342 6.72064 21.5 7.10218 21.5 7.5C21.5 7.89782 21.342 8.27936 21.0607 8.56066C20.7794 8.84196 20.3978 9 20 9C19.6022 9 19.2206 8.84196 18.9393 8.56066C18.658 8.27936 18.5 7.89782 18.5 7.5ZM20 4.5C19.2044 4.5 18.4413 4.81607 17.8787 5.37868C17.3161 5.94129 17 6.70435 17 7.5C17 8.29565 17.3161 9.05871 17.8787 9.62132C18.4413 10.1839 19.2044 10.5 20 10.5C20.7956 10.5 21.5587 10.1839 22.1213 9.62132C22.6839 9.05871 23 8.29565 23 7.5C23 6.70435 22.6839 5.94129 22.1213 5.37868C21.5587 4.81607 20.7956 4.5 20 4.5ZM6.875 12.375C6.875 12.208 6.88825 12.0452 6.91475 11.8868L3.38975 12.831C2.9095 12.9598 2.50008 13.2741 2.25155 13.7048C2.00303 14.1355 1.93574 14.6472 2.0645 15.1275L2.744 17.6625C2.90802 18.275 3.19962 18.8459 3.5997 19.3378C3.99978 19.8298 4.4993 20.2316 5.06553 20.5169C5.63175 20.8023 6.25189 20.9648 6.8853 20.9938C7.51871 21.0227 8.1511 20.9175 8.741 20.685C8.33557 20.3211 7.98516 19.9002 7.70075 19.4355C6.95073 19.5913 6.16954 19.4542 5.51733 19.0525C4.86511 18.6507 4.39129 18.0147 4.193 17.2748L3.5135 14.7397C3.50068 14.6922 3.49735 14.6425 3.50372 14.5937C3.51009 14.5448 3.52602 14.4977 3.55061 14.455C3.57519 14.4123 3.60795 14.3749 3.64701 14.3449C3.68607 14.3148 3.73067 14.2928 3.77825 14.28L6.875 13.4505V12.375ZM16.7428 20.8447C16.5784 20.8009 16.4166 20.7479 16.2582 20.6857C16.6639 20.3219 17.0146 19.901 17.2992 19.4363C18.0492 19.5916 18.8301 19.4542 19.4819 19.0523C20.1338 18.6504 20.6074 18.0145 20.8055 17.2748L21.4842 14.739C21.5099 14.643 21.4965 14.5408 21.4468 14.4547C21.3972 14.3687 21.3154 14.3058 21.2195 14.28L18.125 13.4505V12.375C18.125 12.209 18.1117 12.0465 18.0853 11.8875L21.608 12.831C22.0883 12.9598 22.4977 13.2741 22.7462 13.7048C22.9947 14.1355 23.062 14.6472 22.9333 15.1275L22.2537 17.6625C21.9449 18.8153 21.1908 19.7982 20.1573 20.3949C19.1238 20.9917 17.8955 21.1535 16.7428 20.8447ZM9.875 10.5C9.37772 10.5 8.90081 10.6975 8.54917 11.0492C8.19754 11.4008 8 11.8777 8 12.375V16.5C8 17.6935 8.47411 18.8381 9.31802 19.682C10.1619 20.5259 11.3065 21 12.5 21C13.6935 21 14.8381 20.5259 15.682 19.682C16.5259 18.8381 17 17.6935 17 16.5V12.375C17 11.8777 16.8025 11.4008 16.4508 11.0492C16.0992 10.6975 15.6223 10.5 15.125 10.5H9.875ZM9.5 12.375C9.5 12.2755 9.53951 12.1802 9.60983 12.1098C9.68016 12.0395 9.77554 12 9.875 12H15.125C15.2245 12 15.3198 12.0395 15.3902 12.1098C15.4605 12.1802 15.5 12.2755 15.5 12.375V16.5C15.5 17.2956 15.1839 18.0587 14.6213 18.6213C14.0587 19.1839 13.2956 19.5 12.5 19.5C11.7044 19.5 10.9413 19.1839 10.3787 18.6213C9.81607 18.0587 9.5 17.2956 9.5 16.5V12.375Z" fill="#7C7979"/>
</svg>
