<svg width="25" height="24" viewBox="0 0 25 24" fill="none" xmlns="http://www.w3.org/2000/svg">
<path d="M8.47485 16.25L13.5249 14.8C13.8582 14.7 14.1459 14.529 14.3879 14.287C14.6299 14.045 14.8005 13.7577 14.8999 13.425L16.3499 8.375C16.3999 8.19167 16.3542 8.029 16.2129 7.887C16.0715 7.745 15.9089 7.69933 15.7249 7.75L10.6749 9.2C10.3415 9.3 10.0542 9.471 9.81286 9.713C9.57152 9.955 9.40052 10.2423 9.29985 10.575L7.84985 15.625C7.79985 15.8083 7.84585 15.971 7.98785 16.113C8.12986 16.255 8.29219 16.3007 8.47485 16.25ZM12.0999 13.5C11.6832 13.5 11.3292 13.3543 11.0379 13.063C10.7465 12.7717 10.6005 12.4173 10.5999 12C10.5992 11.5827 10.7452 11.2287 11.0379 10.938C11.3305 10.6473 11.6845 10.5013 12.0999 10.5C12.5152 10.4987 12.8695 10.6447 13.1629 10.938C13.4562 11.2313 13.6019 11.5853 13.5999 12C13.5979 12.4147 13.4522 12.769 13.1629 13.063C12.8735 13.357 12.5192 13.5027 12.0999 13.5ZM12.0999 22C10.7165 22 9.41652 21.7373 8.19986 21.212C6.98319 20.6867 5.92485 19.9743 5.02485 19.075C4.12486 18.1757 3.41252 17.1173 2.88785 15.9C2.36319 14.6827 2.10052 13.3827 2.09985 12C2.09919 10.6173 2.36185 9.31733 2.88785 8.1C3.41385 6.88267 4.12619 5.82433 5.02485 4.925C5.92352 4.02567 6.98186 3.31333 8.19986 2.788C9.41786 2.26267 10.7179 2 12.0999 2C13.4819 2 14.7819 2.26267 15.9999 2.788C17.2179 3.31333 18.2762 4.02567 19.1749 4.925C20.0735 5.82433 20.7862 6.88267 21.3129 8.1C21.8395 9.31733 22.1019 10.6173 22.0999 12C22.0979 13.3827 21.8352 14.6827 21.3119 15.9C20.7885 17.1173 20.0762 18.1757 19.1749 19.075C18.2735 19.9743 17.2152 20.687 15.9999 21.213C14.7845 21.739 13.4845 22.0013 12.0999 22ZM12.0999 20C14.3165 20 16.2042 19.221 17.7629 17.663C19.3215 16.105 20.1005 14.2173 20.0999 12C20.0992 9.78267 19.3202 7.895 17.7629 6.337C16.2055 4.779 14.3179 4 12.0999 4C9.88185 4 7.99419 4.77933 6.43685 6.338C4.87952 7.89667 4.10052 9.784 4.09985 12C4.09919 14.216 4.87852 16.1037 6.43785 17.663C7.99719 19.2223 9.88452 20.0013 12.0999 20Z" fill="#7C7979"/>
</svg>
