<svg width="24" height="25" viewBox="0 0 24 25" fill="none" xmlns="http://www.w3.org/2000/svg">
<g clip-path="url(#clip0_465_3343)">
<path d="M11.9999 0.5C11.4024 0.5 10.8108 0.617684 10.2589 0.846333C9.7069 1.07498 9.20538 1.41012 8.78294 1.8326C8.36051 2.25508 8.02542 2.75664 7.79683 3.30863C7.56824 3.86062 7.45062 4.45223 7.45068 5.04968C7.45065 6.1523 7.85108 7.2174 8.5775 8.04691C9.30393 8.87641 10.3069 9.41385 11.3999 9.55928V23.9C11.3999 24.0591 11.4631 24.2117 11.5756 24.3243C11.6881 24.4368 11.8408 24.5 11.9999 24.5C12.159 24.5 12.3116 24.4368 12.4241 24.3243C12.5367 24.2117 12.5999 24.0591 12.5999 23.9V9.55904C13.6928 9.41362 14.6958 8.87621 15.4222 8.04676C16.1486 7.2173 16.5491 6.15226 16.5491 5.04968C16.5491 4.45223 16.4315 3.86062 16.2029 3.30863C15.9743 2.75664 15.6393 2.25508 15.2168 1.8326C14.7944 1.41012 14.2929 1.07498 13.7409 0.846333C13.1889 0.617684 12.5973 0.5 11.9999 0.5ZM10.8402 2.55176C11.0276 2.55176 11.2132 2.58868 11.3864 2.66041C11.5596 2.73213 11.7169 2.83727 11.8494 2.9698C11.982 3.10234 12.0871 3.25968 12.1588 3.43284C12.2306 3.60601 12.2675 3.79161 12.2675 3.97904C12.2675 4.16647 12.2306 4.35207 12.1588 4.52524C12.0871 4.6984 11.982 4.85574 11.8494 4.98828C11.7169 5.12081 11.5596 5.22595 11.3864 5.29767C11.2132 5.3694 11.0276 5.40632 10.8402 5.40632C10.4617 5.40632 10.0986 5.25595 9.83096 4.98828C9.5633 4.72061 9.41292 4.35758 9.41292 3.97904C9.41292 3.6005 9.5633 3.23747 9.83096 2.9698C10.0986 2.70213 10.4617 2.55176 10.8402 2.55176Z" fill="#DC2626"/>
</g>
<defs>
<clipPath id="clip0_465_3343">
<rect width="24" height="24" fill="white" transform="translate(0 0.5)"/>
</clipPath>
</defs>
</svg>
