<svg width="343" height="63" viewBox="0 0 343 63" fill="none" xmlns="http://www.w3.org/2000/svg">
<path d="M143.381 50.0353C142.57 49.4625 141.944 48.6661 141.578 47.7433C141.042 46.409 141.067 45.111 141.964 44.333C142.188 44.1387 142.478 44.0133 142.783 43.964C143.088 43.9129 143.401 43.9419 143.692 44.0483C144.262 44.2637 144.72 44.7037 145.127 45.3183C145.802 46.3373 145.961 47.7147 145.739 49.0393C145.629 49.702 145.408 50.3543 144.998 50.911C144.588 51.4677 143.948 51.919 143.174 52.0333C142.393 52.1483 141.685 51.878 141.157 51.5323C140.629 51.1867 140.217 50.7703 139.84 50.4297C139.464 50.0887 139.136 49.807 138.866 49.7337C138.033 49.507 137.61 50.1117 137.259 50.8723C137.051 51.3233 136.609 51.6127 136.134 51.4663C135.906 51.3958 135.716 51.2376 135.604 51.0265C135.493 50.8154 135.47 50.5687 135.54 50.3407C135.8 49.4983 136.288 48.633 137.273 48.1667C138.048 47.8 138.875 47.8073 139.517 48.056C140.159 48.305 140.632 48.7193 141.048 49.0957C141.464 49.472 141.83 49.8233 142.142 50.027C142.454 50.2307 142.648 50.2917 142.911 50.253C143.193 50.2113 143.363 50.0953 143.548 49.8443C143.733 49.5933 143.889 49.1977 143.964 48.7433C144.116 47.8347 143.865 46.717 143.627 46.3117C143.427 45.9713 143.282 45.8817 143.122 45.7977C143.086 45.9123 142.946 46.3197 143.248 47.0727C143.442 47.555 143.698 47.9347 144.01 48.2373" stroke="#F6C27A" stroke-width="0.333333" stroke-linecap="round" stroke-linejoin="round"/>
<path d="M145.72 49.1443C146.288 49.2877 146.914 49.3377 147.548 49.301C147.786 49.2872 148.02 49.3685 148.198 49.5272C148.377 49.6858 148.485 49.9088 148.498 50.147C148.505 50.265 148.489 50.3835 148.45 50.4952C148.411 50.6068 148.351 50.7098 148.272 50.7981C148.194 50.8864 148.099 50.9583 147.992 51.0099C147.886 51.0614 147.77 51.0915 147.652 51.0983H147.651C146.785 51.1483 145.897 51.077 145.053 50.8297" stroke="#F6C27A" stroke-width="0.333333" stroke-linecap="round" stroke-linejoin="round"/>
<path d="M9.74997 55.75C9.74997 55.8489 9.77929 55.9456 9.83423 56.0278C9.88917 56.11 9.96726 56.1741 10.0586 56.2119C10.15 56.2498 10.2505 56.2597 10.3475 56.2404C10.4445 56.2211 10.5336 56.1735 10.6035 56.1036C10.6734 56.0336 10.7211 55.9445 10.7404 55.8475C10.7597 55.7506 10.7498 55.65 10.7119 55.5587C10.6741 55.4673 10.61 55.3892 10.5278 55.3343C10.4455 55.2793 10.3489 55.25 10.25 55.25C10.1174 55.25 9.99018 55.3027 9.89641 55.3964C9.80265 55.4902 9.74997 55.6174 9.74997 55.75ZM5.74997 56.25C5.65108 56.25 5.55441 56.2207 5.47218 56.1657C5.38996 56.1108 5.32587 56.0327 5.28803 55.9413C5.25018 55.85 5.24028 55.7494 5.25957 55.6525C5.27887 55.5555 5.32649 55.4664 5.39641 55.3964C5.46634 55.3265 5.55543 55.2789 5.65242 55.2596C5.74941 55.2403 5.84995 55.2502 5.94131 55.2881C6.03267 55.3259 6.11076 55.39 6.1657 55.4722C6.22064 55.5544 6.24997 55.6511 6.24997 55.75C6.24997 55.8826 6.19729 56.0098 6.10352 56.1036C6.00975 56.1973 5.88258 56.25 5.74997 56.25ZM1.69122 55.6806C1.78924 55.7258 1.89579 55.7494 2.00372 55.75C2.11671 55.7497 2.22814 55.7236 2.32944 55.6735C2.43074 55.6234 2.51923 55.5508 2.58809 55.4613L2.74997 55.2556V58.5C2.74997 59.0967 2.98702 59.669 3.40898 60.091C3.83093 60.5129 4.40323 60.75 4.99997 60.75H11C11.5967 60.75 12.169 60.5129 12.591 60.091C13.0129 59.669 13.25 59.0967 13.25 58.5V55.2556L13.4081 55.46C13.4771 55.5498 13.5658 55.6226 13.6673 55.6729C13.7688 55.7232 13.8804 55.7495 13.9937 55.75C14.1016 55.7494 14.2082 55.7258 14.3062 55.6806C14.4604 55.613 14.5868 55.4946 14.6646 55.3453C14.7423 55.1959 14.7667 55.0245 14.7337 54.8594L13.7075 49.3594C13.6886 49.2589 13.6494 49.1634 13.5923 49.0786C13.5352 48.9938 13.4613 48.9216 13.3753 48.8664C13.2892 48.8112 13.1928 48.7742 13.092 48.7576C12.9911 48.741 12.8879 48.7452 12.7887 48.77H12.7787L9.46372 49.75H6.53622L3.21872 48.775H3.20872C3.10954 48.7502 3.00634 48.746 2.90547 48.7626C2.8046 48.7792 2.70819 48.8162 2.62214 48.8714C2.5361 48.9266 2.46225 48.9988 2.40513 49.0836C2.34801 49.1684 2.30882 49.2639 2.28997 49.3644L1.26372 54.8644C1.23183 55.0287 1.25678 55.1991 1.33446 55.3474C1.41214 55.4957 1.53794 55.6132 1.69122 55.6806ZM9.92184 50.1363L12.9162 49.2563C12.9351 49.2521 12.9544 49.25 12.9737 49.25C13.0319 49.2502 13.0882 49.2706 13.1329 49.3078C13.1776 49.345 13.208 49.3966 13.2187 49.4538L14.245 54.9538C14.2556 55.0089 14.2474 55.066 14.2216 55.1158C14.1959 55.1657 14.1541 55.2055 14.103 55.2287C14.0519 55.2519 13.9945 55.2573 13.94 55.2439C13.8854 55.2306 13.837 55.1992 13.8025 55.155L9.92184 50.1363ZM3.24997 54.6094L6.62497 50.25H9.37497L12.75 54.6094V58.5C12.75 58.9641 12.5656 59.4093 12.2374 59.7374C11.9092 60.0656 11.4641 60.25 11 60.25H8.24997V59.1038L9.17684 58.1769C9.22375 58.13 9.25011 58.0663 9.25011 58C9.25011 57.9337 9.22375 57.87 9.17684 57.8231C9.12993 57.7762 9.06631 57.7499 8.99997 57.7499C8.93363 57.7499 8.87 57.7762 8.82309 57.8231L7.99997 58.6463L7.17684 57.8231C7.12993 57.7762 7.06631 57.7499 6.99997 57.7499C6.93363 57.7499 6.87 57.7762 6.82309 57.8231C6.77618 57.87 6.74983 57.9337 6.74983 58C6.74983 58.0663 6.77618 58.13 6.82309 58.1769L7.74997 59.1038V60.25H4.99997C4.53584 60.25 4.09072 60.0656 3.76253 59.7374C3.43434 59.4093 3.24997 58.9641 3.24997 58.5V54.6094ZM1.75497 54.9519L2.78122 49.4519C2.78742 49.4187 2.80029 49.3871 2.81903 49.359C2.83778 49.331 2.86201 49.307 2.89028 49.2885C2.91855 49.2701 2.95026 49.2575 2.98351 49.2517C3.01675 49.2458 3.05084 49.2467 3.08372 49.2544L6.07809 50.1363L2.19622 55.1538C2.16144 55.1974 2.11306 55.2282 2.05877 55.2411C2.00449 55.2541 1.94742 55.2485 1.89667 55.2253C1.84592 55.2021 1.80439 55.1626 1.77871 55.113C1.75303 55.0635 1.74467 55.0067 1.75497 54.9519Z" fill="#F6C27A"/>
<path d="M146.381 10.0353C145.57 9.46249 144.944 8.66611 144.578 7.74333C144.042 6.409 144.067 5.111 144.964 4.333C145.188 4.13867 145.478 4.01334 145.783 3.964C146.088 3.91286 146.401 3.94192 146.692 4.04834C147.262 4.26367 147.72 4.70367 148.127 5.31834C148.802 6.33734 148.961 7.71467 148.739 9.03934C148.629 9.702 148.408 10.3543 147.998 10.911C147.588 11.4677 146.948 11.919 146.174 12.0333C145.393 12.1483 144.685 11.878 144.157 11.5323C143.629 11.1867 143.217 10.7703 142.84 10.4297C142.464 10.0887 142.136 9.807 141.866 9.73367C141.033 9.507 140.61 10.1117 140.259 10.8723C140.051 11.3233 139.609 11.6127 139.134 11.4663C138.906 11.3958 138.716 11.2376 138.604 11.0265C138.493 10.8154 138.47 10.5687 138.54 10.3407C138.8 9.49834 139.288 8.633 140.273 8.16667C141.048 7.8 141.875 7.80733 142.517 8.056C143.159 8.305 143.632 8.71934 144.048 9.09567C144.464 9.472 144.83 9.82334 145.142 10.027C145.454 10.2307 145.648 10.2917 145.911 10.253C146.193 10.2113 146.363 10.0953 146.548 9.84434C146.733 9.59334 146.889 9.19767 146.964 8.74333C147.116 7.83467 146.865 6.717 146.627 6.31167C146.427 5.97133 146.282 5.88167 146.122 5.79767C146.086 5.91234 145.946 6.31967 146.248 7.07267C146.442 7.555 146.698 7.93467 147.01 8.23734" stroke="#F6C27A" stroke-width="0.333333" stroke-linecap="round" stroke-linejoin="round"/>
<path d="M148.72 9.14435C149.288 9.28768 149.914 9.33768 150.548 9.30101C150.786 9.28717 151.02 9.36852 151.198 9.52717C151.377 9.68582 151.485 9.90878 151.498 10.147C151.505 10.265 151.489 10.3835 151.45 10.4952C151.411 10.6068 151.351 10.7098 151.272 10.7981C151.194 10.8864 151.099 10.9583 150.992 11.0099C150.886 11.0614 150.77 11.0915 150.652 11.0983H150.651C149.785 11.1483 148.897 11.077 148.053 10.8297" stroke="#F6C27A" stroke-width="0.333333" stroke-linecap="round" stroke-linejoin="round"/>
<path d="M30.7093 32C31.1864 32 31.584 31.8413 31.9021 31.524C32.2206 31.2058 32.3799 30.8089 32.3799 30.3333C32.3799 30.1307 32.3895 29.9609 32.4086 29.824C32.4278 29.6871 32.4757 29.5809 32.5523 29.5053C32.628 29.4289 32.7345 29.3769 32.8717 29.3493C33.0089 29.3218 33.1791 29.3078 33.3822 29.3073C33.8593 29.3073 34.2569 29.1529 34.575 28.844C34.8935 28.5351 35.0527 28.1427 35.0527 27.6667C35.0527 27.1907 34.8935 26.794 34.575 26.4767C34.2564 26.1593 33.8589 26.0004 33.3822 26C33.2031 26 33.0334 26.0227 32.873 26.068C32.7126 26.1133 32.5766 26.1813 32.4647 26.272C32.3445 26.3658 32.2052 26.4127 32.0471 26.4127C31.889 26.4127 31.754 26.3571 31.6422 26.246L28.8437 23.454C28.7323 23.3429 28.6679 23.2018 28.6506 23.0307C28.6332 22.8596 28.6717 22.71 28.7662 22.582C28.8486 22.4616 28.9147 22.3236 28.9646 22.168C29.0145 22.0124 29.0392 21.8453 29.0388 21.6667C29.0388 21.1907 28.8795 20.794 28.561 20.4767C28.243 20.1589 27.8454 20 27.3683 20C26.8912 20 26.4933 20.1589 26.1748 20.4767C25.8563 20.7944 25.6973 21.1911 25.6977 21.6667C25.6977 21.8693 25.6881 22.0391 25.669 22.176C25.6498 22.3129 25.6019 22.4191 25.5253 22.4947C25.4496 22.5711 25.3429 22.6189 25.2052 22.638C25.0676 22.6571 24.8976 22.6667 24.6954 22.6667C24.2183 22.6667 23.8205 22.8256 23.502 23.1433C23.1839 23.4607 23.0249 23.8573 23.0249 24.3333C23.0249 24.8093 23.1839 25.2062 23.502 25.524C23.82 25.8418 24.2178 26.0004 24.6954 26C24.8745 26 25.042 25.9753 25.1979 25.926C25.3538 25.8767 25.4921 25.8107 25.6129 25.728C25.7412 25.6427 25.8868 25.6064 26.0499 25.6193C26.2125 25.6322 26.3495 25.6942 26.4608 25.8053L29.2339 28.572C29.3453 28.6831 29.4097 28.8133 29.427 28.9627C29.4444 29.112 29.4143 29.2553 29.3368 29.3927C29.2633 29.5127 29.1952 29.6549 29.1323 29.8193C29.07 29.9833 29.0388 30.1547 29.0388 30.3333C29.0388 30.8093 29.1978 31.2062 29.5159 31.524C29.8349 31.8413 30.2327 32 30.7093 32ZM30.7093 31.3333C30.4198 31.3333 30.1803 31.2389 29.991 31.05C29.8017 30.8611 29.707 30.6222 29.707 30.3333C29.707 30.2333 29.7208 30.1362 29.7484 30.042C29.7761 29.9478 29.8179 29.856 29.8741 29.7667C30.0465 29.5089 30.12 29.2249 30.0946 28.9147C30.0701 28.6049 29.9409 28.3333 29.707 28.1L26.9339 25.3333C26.7 25.1 26.4279 24.9731 26.1174 24.9527C25.8069 24.9322 25.5222 25.0036 25.2634 25.1667C25.1743 25.2222 25.0823 25.264 24.9874 25.292C24.8925 25.32 24.7952 25.3338 24.6954 25.3333C24.4058 25.3333 24.1664 25.2389 23.9771 25.05C23.7877 24.8611 23.6931 24.6222 23.6931 24.3333C23.6931 24.0444 23.7877 23.8056 23.9771 23.6167C24.1664 23.4278 24.4058 23.3333 24.6954 23.3333C25.0166 23.3333 25.2787 23.3076 25.4819 23.256C25.685 23.204 25.8572 23.1076 25.9984 22.9667C26.1396 22.8258 26.2363 22.654 26.2884 22.4513C26.3405 22.2487 26.3664 21.9871 26.3659 21.6667C26.3659 21.3778 26.4606 21.1389 26.6499 20.95C26.8393 20.7611 27.0787 20.6667 27.3683 20.6667C27.6578 20.6667 27.8973 20.7611 28.0866 20.95C28.2759 21.1389 28.3706 21.3778 28.3706 21.6667C28.3706 21.772 28.3572 21.8704 28.3305 21.962C28.3038 22.0536 28.2614 22.144 28.2035 22.2333C28.0311 22.4911 27.9576 22.7751 27.983 23.0853C28.0075 23.3951 28.1367 23.6667 28.3706 23.9L31.1437 26.6667C31.3775 26.9 31.6497 27.0269 31.9602 27.0473C32.2707 27.0678 32.5554 26.9964 32.8142 26.8333C32.9033 26.7778 32.9951 26.7362 33.0895 26.7087C33.184 26.6811 33.2815 26.6671 33.3822 26.6667C33.6718 26.6667 33.9112 26.7611 34.1005 26.95C34.2899 27.1389 34.3845 27.3778 34.3845 27.6667C34.3845 27.9556 34.2899 28.1902 34.1005 28.3707C33.9112 28.5511 33.6718 28.6413 33.3822 28.6413C33.061 28.6413 32.7988 28.6713 32.5957 28.7313C32.3926 28.7918 32.2204 28.8924 32.0792 29.0333C31.938 29.1742 31.8413 29.3502 31.7892 29.5613C31.7371 29.7724 31.7112 30.0387 31.7117 30.36C31.7117 30.6489 31.617 30.8833 31.4277 31.0633C31.2383 31.2433 30.9989 31.3333 30.7093 31.3333Z" fill="#F6C27A"/>
<path d="M222.667 42C223.143 42 223.539 41.8413 223.857 41.524C224.174 41.2058 224.333 40.8089 224.333 40.3333C224.333 40.1307 224.343 39.9609 224.362 39.824C224.381 39.6871 224.429 39.5809 224.505 39.5053C224.581 39.4289 224.687 39.3769 224.824 39.3493C224.961 39.3218 225.131 39.3078 225.333 39.3073C225.809 39.3073 226.206 39.1529 226.523 38.844C226.841 38.5351 227 38.1427 227 37.6667C227 37.1907 226.841 36.794 226.523 36.4767C226.206 36.1593 225.809 36.0004 225.333 36C225.155 36 224.985 36.0227 224.825 36.068C224.665 36.1133 224.53 36.1813 224.418 36.272C224.298 36.3658 224.159 36.4127 224.001 36.4127C223.844 36.4127 223.709 36.3571 223.597 36.246L220.805 33.454C220.694 33.3429 220.63 33.2018 220.613 33.0307C220.595 32.8596 220.634 32.71 220.728 32.582C220.81 32.4616 220.876 32.3236 220.926 32.168C220.976 32.0124 221 31.8453 221 31.6667C221 31.1907 220.841 30.794 220.523 30.4767C220.206 30.1589 219.809 30 219.333 30C218.857 30 218.46 30.1589 218.143 30.4767C217.825 30.7944 217.666 31.1911 217.667 31.6667C217.667 31.8693 217.657 32.0391 217.638 32.176C217.619 32.3129 217.571 32.4191 217.495 32.4947C217.419 32.5711 217.313 32.6189 217.175 32.638C217.038 32.6571 216.868 32.6667 216.667 32.6667C216.191 32.6667 215.794 32.8256 215.476 33.1433C215.159 33.4607 215 33.8573 215 34.3333C215 34.8093 215.159 35.2062 215.476 35.524C215.793 35.8418 216.19 36.0004 216.667 36C216.845 36 217.012 35.9753 217.168 35.926C217.324 35.8767 217.462 35.8107 217.582 35.728C217.71 35.6427 217.855 35.6064 218.018 35.6193C218.18 35.6322 218.317 35.6942 218.428 35.8053L221.195 38.572C221.306 38.6831 221.37 38.8133 221.387 38.9627C221.405 39.112 221.375 39.2553 221.297 39.3927C221.224 39.5127 221.156 39.6549 221.093 39.8193C221.031 39.9833 221 40.1547 221 40.3333C221 40.8093 221.159 41.2062 221.476 41.524C221.794 41.8413 222.191 42 222.667 42ZM222.667 41.3333C222.378 41.3333 222.139 41.2389 221.95 41.05C221.761 40.8611 221.667 40.6222 221.667 40.3333C221.667 40.2333 221.68 40.1362 221.708 40.042C221.736 39.9478 221.777 39.856 221.833 39.7667C222.005 39.5089 222.079 39.2249 222.053 38.9147C222.029 38.6049 221.9 38.3333 221.667 38.1L218.9 35.3333C218.667 35.1 218.395 34.9731 218.085 34.9527C217.776 34.9322 217.492 35.0036 217.233 35.1667C217.144 35.2222 217.053 35.264 216.958 35.292C216.863 35.32 216.766 35.3338 216.667 35.3333C216.378 35.3333 216.139 35.2389 215.95 35.05C215.761 34.8611 215.667 34.6222 215.667 34.3333C215.667 34.0444 215.761 33.8056 215.95 33.6167C216.139 33.4278 216.378 33.3333 216.667 33.3333C216.987 33.3333 217.249 33.3076 217.451 33.256C217.654 33.204 217.826 33.1076 217.967 32.9667C218.108 32.8258 218.204 32.654 218.256 32.4513C218.308 32.2487 218.334 31.9871 218.333 31.6667C218.333 31.3778 218.428 31.1389 218.617 30.95C218.806 30.7611 219.044 30.6667 219.333 30.6667C219.622 30.6667 219.861 30.7611 220.05 30.95C220.239 31.1389 220.333 31.3778 220.333 31.6667C220.333 31.772 220.32 31.8704 220.293 31.962C220.267 32.0536 220.224 32.144 220.167 32.2333C219.995 32.4911 219.921 32.7751 219.947 33.0853C219.971 33.3951 220.1 33.6667 220.333 33.9L223.1 36.6667C223.333 36.9 223.605 37.0269 223.915 37.0473C224.224 37.0678 224.508 36.9964 224.767 36.8333C224.856 36.7778 224.947 36.7362 225.041 36.7087C225.136 36.6811 225.233 36.6671 225.333 36.6667C225.622 36.6667 225.861 36.7611 226.05 36.95C226.239 37.1389 226.333 37.3778 226.333 37.6667C226.333 37.9556 226.239 38.1902 226.05 38.3707C225.861 38.5511 225.622 38.6413 225.333 38.6413C225.013 38.6413 224.751 38.6713 224.549 38.7313C224.346 38.7918 224.174 38.8924 224.033 39.0333C223.892 39.1742 223.796 39.3502 223.744 39.5613C223.692 39.7724 223.666 40.0387 223.667 40.36C223.667 40.6489 223.572 40.8833 223.383 41.0633C223.194 41.2433 222.956 41.3333 222.667 41.3333Z" fill="#F6C27A"/>
<path d="M76.3331 23.3V22.326C77.722 22.1958 78.8687 21.6785 79.7731 20.774C80.678 19.8691 81.1954 18.7222 81.3251 17.3333H82.2998V16.6667H81.3251C81.1954 15.2778 80.678 14.1311 79.7731 13.2267C78.8682 12.3222 77.7216 11.8049 76.3331 11.6747V10.7H75.6665V11.6747C74.2776 11.8045 73.1309 12.3218 72.2265 13.2267C71.322 14.1316 70.8045 15.2782 70.6738 16.6667H69.6998V17.3333H70.6738C70.804 18.7222 71.3214 19.8689 72.2258 20.7733C73.1307 21.6782 74.2776 22.1958 75.6665 22.326V23.3H76.3331ZM75.9998 21.6667C74.7109 21.6667 73.6109 21.2111 72.6998 20.3C71.7887 19.3889 71.3331 18.2889 71.3331 17C71.3331 15.7111 71.7887 14.6111 72.6998 13.7C73.6109 12.7889 74.7109 12.3333 75.9998 12.3333C77.2887 12.3333 78.3887 12.7889 79.2998 13.7C80.2109 14.6111 80.6665 15.7111 80.6665 17C80.6665 18.2889 80.2109 19.3889 79.2998 20.3C78.3887 21.2111 77.2887 21.6667 75.9998 21.6667ZM75.9998 19C76.5496 19 77.0205 18.8042 77.4125 18.4127C77.8045 18.0211 78.0002 17.5502 77.9998 17C77.9994 16.4498 77.8036 15.9789 77.4125 15.5873C77.0214 15.1958 76.5505 15 75.9998 15C75.4491 15 74.9782 15.1958 74.5871 15.5873C74.196 15.9789 74.0002 16.4498 73.9998 17C73.9994 17.5502 74.1951 18.0211 74.5871 18.4127C74.9791 18.8042 75.45 19 75.9998 19ZM75.9998 18.3333C75.6331 18.3333 75.3191 18.2029 75.0578 17.942C74.7965 17.6811 74.666 17.3671 74.6665 17C74.6669 16.6329 74.7974 16.3191 75.0578 16.0587C75.3182 15.7982 75.6322 15.6676 75.9998 15.6667C76.3674 15.6658 76.6811 15.7965 76.9411 16.0587C77.2011 16.3209 77.3318 16.6347 77.3331 17C77.3345 17.3653 77.2038 17.6793 76.9411 17.942C76.6785 18.2047 76.3647 18.3351 75.9998 18.3333Z" fill="#F6C27A"/>
<g clip-path="url(#clip0_71_1231)">
<path d="M335 28C333.939 28 332.922 27.5786 332.172 26.8284C331.421 26.0783 331 25.0609 331 24C331 22.9391 331.421 21.9217 332.172 21.1716C332.922 20.4214 333.939 20 335 20C336.061 20 337.078 20.4214 337.828 21.1716C338.579 21.9217 339 22.9391 339 24C339 25.0609 338.579 26.0783 337.828 26.8284C337.078 27.5786 336.061 28 335 28Z" stroke="#F6C27A" stroke-miterlimit="10"/>
<path d="M341 24H342.333M327.666 24H329M335 30V31.3333M335 16.6667V18M339.242 28.2427L340.185 29.1853M329.814 18.8147L330.757 19.7573M339.242 19.7573L340.185 18.8147M329.814 29.1853L330.757 28.2427M331 24C331 25.0609 331.421 26.0783 332.171 26.8284C332.921 27.5786 333.939 28 335 28C336.061 28 337.078 27.5786 337.828 26.8284C338.578 26.0783 339 25.0609 339 24C339 22.9391 338.578 21.9217 337.828 21.1716C337.078 20.4214 336.061 20 335 20C333.939 20 332.921 20.4214 332.171 21.1716C331.421 21.9217 331 22.9391 331 24Z" stroke="#F6C27A" stroke-miterlimit="10" stroke-linecap="round"/>
</g>
<defs>
<clipPath id="clip0_71_1231">
<rect width="16" height="16" fill="white" transform="matrix(-1 0 0 1 343 16)"/>
</clipPath>
</defs>
</svg>
