<svg width="343" height="63" viewBox="0 0 343 63" fill="none" xmlns="http://www.w3.org/2000/svg">
<path d="M199.619 50.0353C200.43 49.4625 201.056 48.6661 201.422 47.7433C201.958 46.409 201.933 45.111 201.036 44.333C200.812 44.1387 200.522 44.0133 200.217 43.964C199.912 43.9129 199.599 43.9419 199.308 44.0483C198.738 44.2637 198.28 44.7037 197.873 45.3183C197.198 46.3373 197.039 47.7147 197.261 49.0393C197.371 49.702 197.592 50.3543 198.002 50.911C198.412 51.4677 199.052 51.919 199.826 52.0333C200.607 52.1483 201.315 51.878 201.843 51.5323C202.371 51.1867 202.783 50.7703 203.16 50.4297C203.536 50.0887 203.864 49.807 204.134 49.7337C204.967 49.507 205.39 50.1117 205.741 50.8723C205.949 51.3233 206.391 51.6127 206.866 51.4663C207.094 51.3958 207.284 51.2376 207.396 51.0265C207.507 50.8154 207.53 50.5687 207.46 50.3407C207.2 49.4983 206.712 48.633 205.727 48.1667C204.952 47.8 204.125 47.8073 203.483 48.056C202.841 48.305 202.368 48.7193 201.952 49.0957C201.536 49.472 201.17 49.8233 200.858 50.027C200.546 50.2307 200.352 50.2917 200.089 50.253C199.807 50.2113 199.637 50.0953 199.452 49.8443C199.267 49.5933 199.111 49.1977 199.036 48.7433C198.884 47.8347 199.135 46.717 199.373 46.3117C199.573 45.9713 199.718 45.8817 199.878 45.7977C199.914 45.9123 200.054 46.3197 199.752 47.0727C199.558 47.555 199.302 47.9347 198.99 48.2373" stroke="#F6C27A" stroke-width="0.333333" stroke-linecap="round" stroke-linejoin="round"/>
<path d="M197.28 49.1443C196.712 49.2877 196.086 49.3377 195.452 49.301C195.214 49.2872 194.98 49.3685 194.802 49.5272C194.623 49.6858 194.515 49.9088 194.502 50.147C194.495 50.265 194.511 50.3835 194.55 50.4952C194.589 50.6068 194.649 50.7098 194.728 50.7981C194.806 50.8864 194.901 50.9583 195.008 51.0099C195.114 51.0614 195.23 51.0915 195.348 51.0983H195.349C196.215 51.1483 197.103 51.077 197.947 50.8297" stroke="#F6C27A" stroke-width="0.333333" stroke-linecap="round" stroke-linejoin="round"/>
<mask id="path-3-inside-1_64_523" fill="white">
<path d="M333.25 55.75C333.25 55.8489 333.221 55.9456 333.166 56.0278C333.111 56.11 333.033 56.1741 332.941 56.2119C332.85 56.2498 332.749 56.2597 332.652 56.2404C332.555 56.2211 332.466 56.1735 332.396 56.1036C332.327 56.0336 332.279 55.9445 332.26 55.8475C332.24 55.7506 332.25 55.65 332.288 55.5587C332.326 55.4673 332.39 55.3892 332.472 55.3343C332.554 55.2793 332.651 55.25 332.75 55.25C332.883 55.25 333.01 55.3027 333.104 55.3964C333.197 55.4902 333.25 55.6174 333.25 55.75ZM337.25 56.25C337.349 56.25 337.446 56.2207 337.528 56.1657C337.61 56.1108 337.674 56.0327 337.712 55.9413C337.75 55.85 337.76 55.7494 337.74 55.6525C337.721 55.5555 337.674 55.4664 337.604 55.3964C337.534 55.3265 337.445 55.2789 337.348 55.2596C337.251 55.2403 337.15 55.2502 337.059 55.2881C336.967 55.3259 336.889 55.39 336.834 55.4722C336.779 55.5544 336.75 55.6511 336.75 55.75C336.75 55.8826 336.803 56.0098 336.896 56.1036C336.99 56.1973 337.117 56.25 337.25 56.25ZM341.309 55.6806C341.211 55.7258 341.104 55.7494 340.996 55.75C340.883 55.7497 340.772 55.7236 340.671 55.6735C340.569 55.6234 340.481 55.5508 340.412 55.4613L340.25 55.2556V58.5C340.25 59.0967 340.013 59.669 339.591 60.091C339.169 60.5129 338.597 60.75 338 60.75H332C331.403 60.75 330.831 60.5129 330.409 60.091C329.987 59.669 329.75 59.0967 329.75 58.5V55.2556L329.592 55.46C329.523 55.5498 329.434 55.6226 329.333 55.6729C329.231 55.7232 329.12 55.7495 329.006 55.75C328.898 55.7494 328.792 55.7258 328.694 55.6806C328.54 55.613 328.413 55.4946 328.335 55.3453C328.258 55.1959 328.233 55.0245 328.266 54.8594L329.293 49.3594C329.311 49.2589 329.351 49.1634 329.408 49.0786C329.465 48.9938 329.539 48.9216 329.625 48.8664C329.711 48.8112 329.807 48.7742 329.908 48.7576C330.009 48.741 330.112 48.7452 330.211 48.77H330.221L333.536 49.75H336.464L339.781 48.775H339.791C339.89 48.7502 339.994 48.746 340.095 48.7626C340.195 48.7792 340.292 48.8162 340.378 48.8714C340.464 48.9266 340.538 48.9988 340.595 49.0836C340.652 49.1684 340.691 49.2639 340.71 49.3644L341.736 54.8644C341.768 55.0287 341.743 55.1991 341.666 55.3474C341.588 55.4957 341.462 55.6132 341.309 55.6806ZM333.078 50.1363L330.084 49.2563C330.065 49.2521 330.046 49.25 330.026 49.25C329.968 49.2502 329.912 49.2706 329.867 49.3078C329.822 49.345 329.792 49.3966 329.781 49.4538L328.755 54.9538C328.744 55.0089 328.753 55.066 328.778 55.1158C328.804 55.1657 328.846 55.2055 328.897 55.2287C328.948 55.2519 329.006 55.2573 329.06 55.2439C329.115 55.2306 329.163 55.1992 329.198 55.155L333.078 50.1363ZM339.75 54.6094L336.375 50.25H333.625L330.25 54.6094V58.5C330.25 58.9641 330.434 59.4093 330.763 59.7374C331.091 60.0656 331.536 60.25 332 60.25H334.75V59.1038L333.823 58.1769C333.776 58.13 333.75 58.0663 333.75 58C333.75 57.9337 333.776 57.87 333.823 57.8231C333.87 57.7762 333.934 57.7499 334 57.7499C334.066 57.7499 334.13 57.7762 334.177 57.8231L335 58.6463L335.823 57.8231C335.87 57.7762 335.934 57.7499 336 57.7499C336.066 57.7499 336.13 57.7762 336.177 57.8231C336.224 57.87 336.25 57.9337 336.25 58C336.25 58.0663 336.224 58.13 336.177 58.1769L335.25 59.1038V60.25H338C338.464 60.25 338.909 60.0656 339.237 59.7374C339.566 59.4093 339.75 58.9641 339.75 58.5V54.6094ZM341.245 54.9519L340.219 49.4519C340.213 49.4187 340.2 49.3871 340.181 49.359C340.162 49.331 340.138 49.307 340.11 49.2885C340.081 49.2701 340.05 49.2575 340.016 49.2517C339.983 49.2458 339.949 49.2467 339.916 49.2544L336.922 50.1363L340.804 55.1538C340.839 55.1974 340.887 55.2282 340.941 55.2411C340.996 55.2541 341.053 55.2485 341.103 55.2253C341.154 55.2021 341.196 55.1626 341.221 55.113C341.247 55.0635 341.255 55.0067 341.245 54.9519Z"/>
</mask>
<path d="M333.25 55.75C333.25 55.8489 333.221 55.9456 333.166 56.0278C333.111 56.11 333.033 56.1741 332.941 56.2119C332.85 56.2498 332.749 56.2597 332.652 56.2404C332.555 56.2211 332.466 56.1735 332.396 56.1036C332.327 56.0336 332.279 55.9445 332.26 55.8475C332.24 55.7506 332.25 55.65 332.288 55.5587C332.326 55.4673 332.39 55.3892 332.472 55.3343C332.554 55.2793 332.651 55.25 332.75 55.25C332.883 55.25 333.01 55.3027 333.104 55.3964C333.197 55.4902 333.25 55.6174 333.25 55.75ZM337.25 56.25C337.349 56.25 337.446 56.2207 337.528 56.1657C337.61 56.1108 337.674 56.0327 337.712 55.9413C337.75 55.85 337.76 55.7494 337.74 55.6525C337.721 55.5555 337.674 55.4664 337.604 55.3964C337.534 55.3265 337.445 55.2789 337.348 55.2596C337.251 55.2403 337.15 55.2502 337.059 55.2881C336.967 55.3259 336.889 55.39 336.834 55.4722C336.779 55.5544 336.75 55.6511 336.75 55.75C336.75 55.8826 336.803 56.0098 336.896 56.1036C336.99 56.1973 337.117 56.25 337.25 56.25ZM341.309 55.6806C341.211 55.7258 341.104 55.7494 340.996 55.75C340.883 55.7497 340.772 55.7236 340.671 55.6735C340.569 55.6234 340.481 55.5508 340.412 55.4613L340.25 55.2556V58.5C340.25 59.0967 340.013 59.669 339.591 60.091C339.169 60.5129 338.597 60.75 338 60.75H332C331.403 60.75 330.831 60.5129 330.409 60.091C329.987 59.669 329.75 59.0967 329.75 58.5V55.2556L329.592 55.46C329.523 55.5498 329.434 55.6226 329.333 55.6729C329.231 55.7232 329.12 55.7495 329.006 55.75C328.898 55.7494 328.792 55.7258 328.694 55.6806C328.54 55.613 328.413 55.4946 328.335 55.3453C328.258 55.1959 328.233 55.0245 328.266 54.8594L329.293 49.3594C329.311 49.2589 329.351 49.1634 329.408 49.0786C329.465 48.9938 329.539 48.9216 329.625 48.8664C329.711 48.8112 329.807 48.7742 329.908 48.7576C330.009 48.741 330.112 48.7452 330.211 48.77H330.221L333.536 49.75H336.464L339.781 48.775H339.791C339.89 48.7502 339.994 48.746 340.095 48.7626C340.195 48.7792 340.292 48.8162 340.378 48.8714C340.464 48.9266 340.538 48.9988 340.595 49.0836C340.652 49.1684 340.691 49.2639 340.71 49.3644L341.736 54.8644C341.768 55.0287 341.743 55.1991 341.666 55.3474C341.588 55.4957 341.462 55.6132 341.309 55.6806ZM333.078 50.1363L330.084 49.2563C330.065 49.2521 330.046 49.25 330.026 49.25C329.968 49.2502 329.912 49.2706 329.867 49.3078C329.822 49.345 329.792 49.3966 329.781 49.4538L328.755 54.9538C328.744 55.0089 328.753 55.066 328.778 55.1158C328.804 55.1657 328.846 55.2055 328.897 55.2287C328.948 55.2519 329.006 55.2573 329.06 55.2439C329.115 55.2306 329.163 55.1992 329.198 55.155L333.078 50.1363ZM339.75 54.6094L336.375 50.25H333.625L330.25 54.6094V58.5C330.25 58.9641 330.434 59.4093 330.763 59.7374C331.091 60.0656 331.536 60.25 332 60.25H334.75V59.1038L333.823 58.1769C333.776 58.13 333.75 58.0663 333.75 58C333.75 57.9337 333.776 57.87 333.823 57.8231C333.87 57.7762 333.934 57.7499 334 57.7499C334.066 57.7499 334.13 57.7762 334.177 57.8231L335 58.6463L335.823 57.8231C335.87 57.7762 335.934 57.7499 336 57.7499C336.066 57.7499 336.13 57.7762 336.177 57.8231C336.224 57.87 336.25 57.9337 336.25 58C336.25 58.0663 336.224 58.13 336.177 58.1769L335.25 59.1038V60.25H338C338.464 60.25 338.909 60.0656 339.237 59.7374C339.566 59.4093 339.75 58.9641 339.75 58.5V54.6094ZM341.245 54.9519L340.219 49.4519C340.213 49.4187 340.2 49.3871 340.181 49.359C340.162 49.331 340.138 49.307 340.11 49.2885C340.081 49.2701 340.05 49.2575 340.016 49.2517C339.983 49.2458 339.949 49.2467 339.916 49.2544L336.922 50.1363L340.804 55.1538C340.839 55.1974 340.887 55.2282 340.941 55.2411C340.996 55.2541 341.053 55.2485 341.103 55.2253C341.154 55.2021 341.196 55.1626 341.221 55.113C341.247 55.0635 341.255 55.0067 341.245 54.9519Z" fill="#F6C27A" stroke="#F6C27A" stroke-width="0.125" mask="url(#path-3-inside-1_64_523)"/>
<path d="M196.619 10.0353C197.43 9.46249 198.056 8.66611 198.422 7.74333C198.958 6.409 198.933 5.111 198.036 4.333C197.812 4.13867 197.522 4.01334 197.217 3.964C196.912 3.91286 196.599 3.94192 196.308 4.04834C195.738 4.26367 195.28 4.70367 194.873 5.31834C194.198 6.33734 194.039 7.71467 194.261 9.03934C194.371 9.702 194.592 10.3543 195.002 10.911C195.412 11.4677 196.052 11.919 196.826 12.0333C197.607 12.1483 198.315 11.878 198.843 11.5323C199.371 11.1867 199.783 10.7703 200.16 10.4297C200.536 10.0887 200.864 9.807 201.134 9.73367C201.967 9.507 202.39 10.1117 202.741 10.8723C202.949 11.3233 203.391 11.6127 203.866 11.4663C204.094 11.3958 204.284 11.2376 204.396 11.0265C204.507 10.8154 204.53 10.5687 204.46 10.3407C204.2 9.49834 203.712 8.633 202.727 8.16667C201.952 7.8 201.125 7.80733 200.483 8.056C199.841 8.305 199.368 8.71934 198.952 9.09567C198.536 9.472 198.17 9.82334 197.858 10.027C197.546 10.2307 197.352 10.2917 197.089 10.253C196.807 10.2113 196.637 10.0953 196.452 9.84434C196.267 9.59334 196.111 9.19767 196.036 8.74333C195.884 7.83467 196.135 6.717 196.373 6.31167C196.573 5.97133 196.718 5.88167 196.878 5.79767C196.914 5.91234 197.054 6.31967 196.752 7.07267C196.558 7.555 196.302 7.93467 195.99 8.23734" stroke="#F6C27A" stroke-width="0.333333" stroke-linecap="round" stroke-linejoin="round"/>
<path d="M194.28 9.14435C193.712 9.28768 193.086 9.33768 192.452 9.30101C192.214 9.28717 191.98 9.36852 191.802 9.52717C191.623 9.68582 191.515 9.90878 191.502 10.147C191.495 10.265 191.511 10.3835 191.55 10.4952C191.589 10.6068 191.649 10.7098 191.728 10.7981C191.806 10.8864 191.901 10.9583 192.008 11.0099C192.114 11.0614 192.23 11.0915 192.348 11.0983H192.349C193.215 11.1483 194.103 11.077 194.947 10.8297" stroke="#F6C27A" stroke-width="0.333333" stroke-linecap="round" stroke-linejoin="round"/>
<path d="M312.289 31.667C312.682 31.6669 312.993 31.5388 313.246 31.2881C313.497 31.0368 313.625 30.7263 313.625 30.333C313.625 30.2679 313.62 30.2045 313.61 30.1426C313.619 30.2054 313.624 30.2689 313.624 30.333C313.624 30.7026 313.499 31.0294 313.242 31.2861C312.985 31.5426 312.658 31.6669 312.289 31.667ZM312.289 31.667C312.108 31.667 311.945 31.638 311.797 31.585C311.95 31.6391 312.115 31.667 312.289 31.667ZM310.325 29.0566C310.47 29.1026 310.587 29.174 310.683 29.2695C310.713 29.2996 310.739 29.3333 310.764 29.3691C310.739 29.3338 310.711 29.2992 310.679 29.2676H310.678C310.578 29.1672 310.456 29.0993 310.325 29.0566ZM310.325 29.0566C310.319 29.0548 310.313 29.0526 310.307 29.0508L310.211 29.0273C310.25 29.0357 310.288 29.0446 310.325 29.0566ZM318.302 25.666C318.171 25.6665 318.041 25.6485 317.916 25.6113C317.862 25.5956 317.811 25.5746 317.76 25.5527C317.804 25.572 317.85 25.5926 317.9 25.6084C318.02 25.6465 318.154 25.667 318.302 25.667V25.666ZM318.302 25.666C318.697 25.6664 319.009 25.5392 319.26 25.2881C319.512 25.0368 319.639 24.7262 319.639 24.333C319.639 23.9399 319.512 23.6296 319.26 23.3789C319.008 23.1277 318.697 23 318.302 23M318.302 25.666C318.672 25.666 318.999 25.5428 319.256 25.2861C319.514 25.0294 319.638 24.7025 319.638 24.333C319.638 23.9637 319.513 23.6375 319.256 23.3809C318.999 23.1242 318.672 23 318.302 23M318.302 23C318.218 23 318.14 22.9967 318.067 22.9932C318.141 22.9963 318.22 23 318.302 23ZM315.629 20.333C316.024 20.333 316.335 20.4615 316.587 20.7129C316.839 20.9641 316.967 21.2737 316.966 21.666V21.667C316.966 21.7665 316.969 21.8603 316.973 21.9482C316.968 21.8626 316.965 21.7689 316.965 21.667L316.959 21.5303C316.932 21.2167 316.809 20.9385 316.583 20.7139C316.326 20.4572 315.999 20.333 315.629 20.333ZM315.629 20.333C315.26 20.333 314.933 20.4572 314.675 20.7139C314.418 20.9706 314.293 21.2974 314.293 21.667C314.293 21.8006 314.311 21.9309 314.347 22.0557C314.349 22.0606 314.351 22.0654 314.352 22.0703C314.352 22.0689 314.351 22.0678 314.35 22.0664C314.312 21.9471 314.292 21.8149 314.292 21.668V21.667C314.292 21.274 314.42 20.9637 314.671 20.7129H314.672C314.924 20.4617 315.235 20.333 315.629 20.333ZM311.768 31.5752C311.749 31.5677 311.73 31.5592 311.711 31.5508C311.73 31.559 311.749 31.5679 311.768 31.5752ZM310.943 30.0537C310.949 30.1468 310.953 30.2485 310.953 30.3594V30.3604C310.953 30.4036 310.954 30.4463 310.958 30.4883C310.953 30.4381 310.951 30.3861 310.951 30.333C310.951 30.2342 310.947 30.1411 310.943 30.0537ZM310.785 29.4014C310.796 29.4201 310.807 29.4396 310.817 29.46C310.807 29.4402 310.797 29.4203 310.785 29.4014ZM313.241 29.1455C313.239 29.1296 313.236 29.1138 313.235 29.0977C313.236 29.1138 313.239 29.1295 313.241 29.1455ZM316.301 25.5693L313.528 28.3359C313.366 28.4974 313.266 28.6963 313.24 28.9238C313.235 28.9664 313.235 29.0089 313.235 29.0508V28.9414C313.253 28.7161 313.344 28.517 313.526 28.3359L316.299 25.5693C316.31 25.5583 316.323 25.5494 316.334 25.5391C316.323 25.5491 316.312 25.5587 316.301 25.5693ZM310.119 29.0098C310.142 29.0136 310.165 29.0171 310.187 29.0215C310.165 29.0171 310.142 29.0135 310.119 29.0098ZM309.97 28.9912C309.993 28.9934 310.015 28.9954 310.037 28.998C310.015 28.9953 309.993 28.9934 309.97 28.9912ZM309.668 28.9756C309.751 28.9765 309.827 28.9793 309.898 28.9844C309.825 28.979 309.748 28.9766 309.668 28.9756ZM309.383 26.3506C309.108 26.3927 308.864 26.5124 308.662 26.7139C308.404 26.9706 308.28 27.2974 308.28 27.667C308.28 28.0364 308.405 28.3621 308.667 28.6123C308.892 28.8257 309.166 28.9409 309.473 28.9678C309.142 28.9409 308.875 28.8183 308.655 28.6045L308.567 28.5117C308.376 28.2867 308.278 28.0109 308.278 27.667C308.278 27.2739 308.406 26.9637 308.658 26.7129C308.858 26.5133 309.096 26.3923 309.383 26.3506ZM309.625 26.333C309.772 26.3338 309.908 26.353 310.034 26.3887C310.156 26.4233 310.249 26.472 310.321 26.5293C310.219 26.4697 310.113 26.4212 310.001 26.3887C309.879 26.3529 309.753 26.3343 309.625 26.333ZM316.902 25.2852C316.964 25.281 317.025 25.2818 317.084 25.2871C317.031 25.2834 316.976 25.2828 316.921 25.2871L316.748 25.3154C316.619 25.3479 316.5 25.4051 316.394 25.4873C316.549 25.363 316.715 25.2975 316.902 25.2852ZM314.682 23.0586C314.673 23.1694 314.646 23.274 314.6 23.373C314.64 23.2763 314.667 23.1733 314.678 23.0645C314.681 23.0419 314.681 23.0194 314.682 22.9971V23.0586ZM317.912 22.9834C317.903 22.9826 317.894 22.9814 317.885 22.9805C317.894 22.9812 317.903 22.9827 317.912 22.9834ZM314.681 22.873C314.682 22.8841 314.682 22.8951 314.683 22.9062C314.683 22.8951 314.682 22.8841 314.681 22.873ZM317.511 22.9053C317.503 22.9021 317.494 22.8989 317.486 22.8955C317.494 22.8991 317.503 22.9019 317.511 22.9053ZM317.452 22.8799C317.416 22.8636 317.383 22.8449 317.352 22.8242C317.384 22.8456 317.417 22.8634 317.452 22.8799ZM317.083 22.5107C317.122 22.5909 317.171 22.6659 317.238 22.7314C317.271 22.7651 317.307 22.7944 317.345 22.8203C317.306 22.7936 317.269 22.7642 317.235 22.7305C317.172 22.6673 317.122 22.5946 317.083 22.5107ZM317.07 22.4824C317.062 22.4635 317.056 22.4438 317.049 22.4238C317.056 22.4434 317.062 22.4634 317.07 22.4824ZM316.987 22.1035C316.982 22.0628 316.978 22.0199 316.975 21.9746C316.978 22.0192 316.983 22.0621 316.987 22.1035ZM317.731 25.542C317.715 25.5343 317.7 25.5247 317.684 25.5166C317.7 25.5246 317.715 25.5346 317.731 25.542Z" fill="#F6C27A" stroke="#F6C27A" stroke-width="0.666667"/>
<path d="M120.333 41.667C120.726 41.667 121.036 41.539 121.288 41.2881C121.507 41.0684 121.633 40.8037 121.661 40.4775V40.4697C121.634 40.7831 121.511 41.0614 121.286 41.2861C121.029 41.5429 120.702 41.667 120.333 41.667ZM120.333 41.667C120.196 41.667 120.07 41.6498 119.952 41.6191C120.073 41.6507 120.2 41.667 120.333 41.667ZM126.333 35.667V35.666C126.269 35.6662 126.205 35.6622 126.142 35.6533C126.203 35.6614 126.266 35.667 126.333 35.667ZM126.333 35.667L126.334 35.666M126.333 35.667H126.334V35.666M126.334 35.666C126.728 35.6663 127.038 35.539 127.288 35.2881C127.507 35.0684 127.633 34.8037 127.661 34.4775V34.4697C127.634 34.7831 127.511 35.0614 127.286 35.2861C127.029 35.5428 126.703 35.6659 126.334 35.666ZM126.333 33C126.726 33 127.037 33.1277 127.288 33.3789C127.539 33.6296 127.667 33.9396 127.667 34.333C127.667 33.9639 127.543 33.6376 127.286 33.3809C127.029 33.1241 126.702 33 126.333 33ZM126.333 33C126.249 33 126.171 32.9967 126.099 32.9932C126.173 32.9963 126.251 33 126.333 33ZM123.667 30.333C124.06 30.3331 124.371 30.4607 124.622 30.7119C124.873 30.9631 125 31.2734 125 31.666V31.667M123.667 30.333C124.036 30.3331 124.362 30.4572 124.619 30.7139C124.844 30.9386 124.967 31.2169 124.994 31.5303L125 31.667M123.667 30.333C123.298 30.333 122.971 30.4571 122.714 30.7139C122.457 30.9707 122.333 31.2976 122.333 31.667M123.667 30.333C123.274 30.333 122.964 30.461 122.713 30.7119L122.712 30.7129C122.461 30.9636 122.333 31.2738 122.333 31.667M125 31.667C125 31.7559 125.002 31.8403 125.006 31.9199C125.002 31.8421 125 31.7578 125 31.667ZM122.333 31.667C122.333 31.7903 122.349 31.9104 122.38 32.0264C122.349 31.9176 122.333 31.7987 122.333 31.668V31.667ZM119.939 41.6162C119.911 41.6085 119.884 41.5993 119.856 41.5898C119.884 41.5992 119.911 41.6086 119.939 41.6162ZM119.811 41.5742C119.797 41.5688 119.784 41.5615 119.771 41.5557C119.784 41.5614 119.797 41.5689 119.811 41.5742ZM118.994 40.1162C118.998 40.1841 119 40.2564 119 40.333C119 40.2574 118.997 40.1852 118.994 40.1162ZM118.837 39.4082C118.844 39.4204 118.852 39.4325 118.858 39.4453C118.851 39.4328 118.845 39.4204 118.837 39.4082ZM118.627 39.1816C118.664 39.2082 118.699 39.2365 118.731 39.2686C118.762 39.2988 118.788 39.3331 118.812 39.3691C118.788 39.334 118.76 39.2999 118.729 39.2686H118.728C118.696 39.2367 118.663 39.2071 118.627 39.1816ZM118.513 39.1133C118.55 39.1318 118.584 39.1521 118.617 39.1748C118.584 39.1517 118.549 39.1314 118.513 39.1133ZM118.389 39.0625C118.427 39.0753 118.463 39.0901 118.497 39.1064C118.462 39.0896 118.426 39.0751 118.389 39.0625ZM118.356 39.0508C118.361 39.0523 118.366 39.0541 118.371 39.0557C118.339 39.0455 118.307 39.0377 118.274 39.0303L118.356 39.0508ZM118.175 39.0107C118.195 39.0141 118.215 39.0167 118.234 39.0205C118.215 39.0167 118.195 39.0141 118.175 39.0107ZM118.022 38.9912C118.044 38.9933 118.065 38.9955 118.086 38.998C118.065 38.9955 118.044 38.9934 118.022 38.9912ZM117.72 38.9756C117.802 38.9765 117.878 38.9793 117.948 38.9844C117.875 38.979 117.799 38.9766 117.72 38.9756ZM116.339 37.8027C116.366 38.1159 116.49 38.3922 116.72 38.6113C116.944 38.8252 117.218 38.941 117.525 38.9678C117.195 38.941 116.929 38.8192 116.709 38.6055V38.6045C116.492 38.3934 116.367 38.1346 116.339 37.8096V37.8027ZM121.279 38.9678V38.9404C121.28 38.9368 121.28 38.9333 121.28 38.9297C121.279 38.9423 121.28 38.9552 121.279 38.9678ZM121.46 38.4648C121.369 38.59 121.312 38.7324 121.288 38.8887C121.315 38.6847 121.403 38.5027 121.569 38.3359L121.46 38.4648ZM117.493 36.3428C117.195 36.3763 116.93 36.4981 116.714 36.7139C116.457 36.9707 116.333 37.2976 116.333 37.667C116.333 37.2738 116.461 36.9636 116.712 36.7129C116.925 36.5001 117.181 36.3759 117.493 36.3428ZM117.676 36.333C117.822 36.3338 117.958 36.353 118.084 36.3887C118.207 36.4236 118.301 36.4723 118.372 36.5303C118.27 36.4704 118.164 36.4214 118.052 36.3887C117.929 36.353 117.804 36.3343 117.676 36.333ZM125.947 35.6113C126.01 35.6297 126.073 35.6432 126.137 35.6523C126.065 35.6425 125.997 35.6287 125.933 35.6084C125.887 35.5941 125.846 35.5758 125.806 35.5586C125.852 35.5781 125.899 35.597 125.947 35.6113ZM124.937 35.2852C124.999 35.281 125.059 35.2818 125.118 35.2871C125.065 35.2835 125.011 35.2828 124.956 35.2871C124.762 35.3025 124.586 35.3676 124.436 35.4824C124.589 35.361 124.753 35.2973 124.937 35.2852ZM125.758 35.5391C125.754 35.5373 125.751 35.535 125.747 35.5332C125.751 35.5349 125.754 35.5374 125.758 35.5391ZM122.721 33.0596C122.713 33.1574 122.69 33.2495 122.653 33.3379C122.686 33.2512 122.709 33.1603 122.719 33.0645C122.72 33.0531 122.72 33.0415 122.721 33.0303V33.0596ZM125.94 32.9824C125.934 32.9818 125.927 32.9811 125.921 32.9805C125.927 32.981 125.934 32.9819 125.94 32.9824ZM125.479 32.877C125.448 32.862 125.418 32.8457 125.39 32.8271C125.418 32.8462 125.449 32.8619 125.479 32.877ZM125.271 32.7314V32.7305C125.304 32.7631 125.338 32.792 125.375 32.8174C125.337 32.7915 125.301 32.7639 125.269 32.7314C125.236 32.6986 125.208 32.6621 125.182 32.624C125.208 32.6618 125.238 32.6979 125.271 32.7314ZM125.172 32.6094C125.153 32.581 125.137 32.5511 125.122 32.5195C125.137 32.5502 125.153 32.5806 125.172 32.6094Z" fill="#F6C27A" stroke="#F6C27A" stroke-width="0.666667"/>
<path d="M267.303 21.994L267 22.0223L266.698 21.994C266.676 21.9918 266.653 21.9885 266.631 21.9861C266.752 21.9942 266.875 21.9998 267 21.9998C267.125 21.9998 267.248 21.9942 267.369 21.9861C267.347 21.9884 267.325 21.9919 267.303 21.994ZM270.169 20.8699C270.294 20.7654 270.417 20.6549 270.536 20.5359C270.702 20.3703 270.852 20.1971 270.989 20.0193C270.852 20.2006 270.702 20.3739 270.538 20.5379C270.42 20.6561 270.296 20.7658 270.169 20.8699ZM263.123 20.1619C263.229 20.2898 263.344 20.4146 263.465 20.5359C263.628 20.699 263.798 20.8473 263.973 20.9832C263.794 20.8478 263.624 20.6994 263.463 20.5379C263.342 20.4173 263.229 20.2919 263.123 20.1619ZM267.985 18.3416C267.699 18.5586 267.375 18.6657 267.001 18.6658C267.37 18.6657 267.701 18.5551 267.985 18.3416ZM265.887 18.2352C266.133 18.4602 266.419 18.5978 266.738 18.6453C266.418 18.5985 266.137 18.4641 265.887 18.2352ZM265.341 17.1668C265.37 17.4902 265.491 17.7811 265.695 18.034C265.453 17.7368 265.334 17.3961 265.334 16.9998L265.341 17.1668ZM268.659 17.1697C268.634 17.4463 268.546 17.6944 268.393 17.9188C268.544 17.6945 268.634 17.4428 268.659 17.1678V17.1697ZM271.994 16.6981L272.022 16.9998L271.994 17.3026C271.992 17.3231 271.989 17.3436 271.987 17.3641C271.995 17.2442 272 17.1227 272 16.9998C272 16.8755 271.994 16.7528 271.986 16.6317C271.989 16.6537 271.992 16.6759 271.994 16.6981ZM262.014 16.6356C262.006 16.7555 262 16.8768 262 16.9998C262 17.1201 262.005 17.239 262.013 17.3563C262.011 17.3384 262.009 17.3205 262.007 17.3026L261.979 16.9998L262.007 16.6981C262.009 16.6773 262.012 16.6562 262.014 16.6356ZM268.293 15.949C268.544 16.2499 268.667 16.5963 268.667 16.9998L268.659 16.8318C268.633 16.5561 268.543 16.3036 268.391 16.0789L268.293 15.949ZM267 15.3338C266.543 15.3329 266.144 15.4991 265.822 15.824C265.542 16.1071 265.379 16.4465 265.342 16.8309L265.334 16.9988C265.335 16.5381 265.495 16.1522 265.823 15.8231C266.111 15.535 266.443 15.3759 266.83 15.3406L267 15.3338ZM267.169 15.3416C267.503 15.3718 267.795 15.4927 268.054 15.7098C267.798 15.497 267.5 15.3732 267.169 15.3416ZM270.877 13.8387C270.771 13.7109 270.657 13.5859 270.536 13.4647C270.419 13.3474 270.298 13.2369 270.175 13.1336C270.3 13.2365 270.422 13.3462 270.538 13.4627C270.659 13.5832 270.771 13.7089 270.877 13.8387ZM263.822 13.1365C263.7 13.239 263.581 13.3485 263.465 13.4647C263.345 13.5844 263.232 13.7067 263.127 13.8328C263.232 13.7048 263.344 13.5816 263.463 13.4627C263.578 13.3473 263.698 13.2386 263.822 13.1365ZM267 11.9783L267.303 12.0067C267.321 12.0083 267.339 12.0107 267.356 12.0125C267.239 12.005 267.12 11.9998 267 11.9998C266.88 11.9998 266.762 12.0051 266.645 12.0125C266.662 12.0107 266.68 12.0083 266.698 12.0067L267 11.9783ZM270.15 20.8856C270.107 20.921 270.063 20.9563 270.019 20.9901C270.063 20.9559 270.107 20.9215 270.15 20.8856ZM270.894 13.8592C270.924 13.8968 270.954 13.9341 270.983 13.9725C270.954 13.9346 270.924 13.8966 270.894 13.8592Z" fill="#F6C27A" stroke="#F6C27A" stroke-width="0.666667"/>
<g clip-path="url(#clip0_64_523)">
<path d="M8 28C9.06087 28 10.0783 27.5786 10.8284 26.8284C11.5786 26.0783 12 25.0609 12 24C12 22.9391 11.5786 21.9217 10.8284 21.1716C10.0783 20.4214 9.06087 20 8 20C6.93913 20 5.92172 20.4214 5.17157 21.1716C4.42143 21.9217 4 22.9391 4 24C4 25.0609 4.42143 26.0783 5.17157 26.8284C5.92172 27.5786 6.93913 28 8 28Z" stroke="#F6C27A" stroke-miterlimit="10"/>
<path d="M2.00008 24H0.666748M15.3334 24H14.0001M8.00008 30V31.3334M8.00008 16.6667V18M3.75741 28.2427L2.81475 29.1854M13.1854 18.8147L12.2427 19.7574M3.75741 19.7574L2.81475 18.8147M13.1854 29.1854L12.2427 28.2427M12.0001 24C12.0001 25.0609 11.5787 26.0783 10.8285 26.8284C10.0784 27.5786 9.06095 28 8.00008 28C6.93922 28 5.9218 27.5786 5.17165 26.8284C4.42151 26.0783 4.00008 25.0609 4.00008 24C4.00008 22.9392 4.42151 21.9217 5.17165 21.1716C5.9218 20.4214 6.93922 20 8.00008 20C9.06095 20 10.0784 20.4214 10.8285 21.1716C11.5787 21.9217 12.0001 22.9392 12.0001 24Z" stroke="#F6C27A" stroke-miterlimit="10" stroke-linecap="round"/>
</g>
<defs>
<clipPath id="clip0_64_523">
<rect width="16" height="16" fill="white" transform="translate(0 16)"/>
</clipPath>
</defs>
</svg>
