<svg width="24" height="25" viewBox="0 0 24 25" fill="none" xmlns="http://www.w3.org/2000/svg">
<path fill-rule="evenodd" clip-rule="evenodd" d="M4.22176 11.7515C5.69401 11.7515 6.89518 11.3848 6.89518 10.9344C6.89518 10.4839 5.69401 10.1172 4.22176 10.1172C2.74951 10.1172 1.54834 10.4839 1.54834 10.9344C1.54834 11.3848 2.74951 11.7515 4.22176 11.7515Z" fill="#EBE6EF"/>
<path fill-rule="evenodd" clip-rule="evenodd" d="M4.22159 0.96875C3.27022 0.96875 2.31884 1.33016 1.59734 2.0517C0.498453 3.15055 0.370907 4.66667 0.909078 6.05253C1.44322 7.43309 3.29548 9.60294 4.22164 10.8586C5.14644 9.60289 7.00002 7.43309 7.5342 6.05253C8.07102 4.66667 7.94478 3.15055 6.84458 2.0517C6.12308 1.3302 5.17297 0.96875 4.22159 0.96875Z" fill="#06967C"/>
<path fill-rule="evenodd" clip-rule="evenodd" d="M3.7513 0.967773C2.96338 1.0701 2.20199 1.42223 1.60007 2.0241C0.494566 3.1296 0.366972 4.65501 0.907769 6.04888C1.44191 7.42945 3.28489 9.59263 4.22164 10.8589C4.8568 9.65376 6.06064 7.42809 6.59478 6.04888C7.13558 4.65505 7.00803 3.12965 5.90118 2.0241C5.29925 1.42218 4.53927 1.07005 3.7513 0.967773Z" fill="#08A88A"/>
<path fill-rule="evenodd" clip-rule="evenodd" d="M17.9969 24.0318C20.3009 24.0318 22.1811 23.4565 22.1811 22.7523C22.1811 22.048 20.3009 21.4727 17.9969 21.4727C15.6928 21.4727 13.814 22.048 13.814 22.7523C13.814 23.4565 15.6928 24.0318 17.9969 24.0318Z" fill="#EBE6EF"/>
<path fill-rule="evenodd" clip-rule="evenodd" d="M17.9968 7.15723C16.5086 7.15723 15.0204 7.72193 13.891 8.85007C12.1703 10.5708 11.9709 12.9439 12.8121 15.1137C13.6492 17.2743 16.5485 20.6692 17.9968 22.6331C19.4452 20.6692 22.3445 17.2743 23.1816 15.1137C24.0226 12.9439 23.8233 10.5708 22.1026 8.85007C20.9732 7.72198 19.485 7.15723 17.9968 7.15723Z" fill="#F24C00"/>
<path fill-rule="evenodd" clip-rule="evenodd" d="M17.2381 7.20605C16.0117 7.36552 14.8278 7.91293 13.891 8.84973C12.1703 10.5704 11.9709 12.9436 12.8121 15.1134C13.6439 17.2606 16.5126 20.6264 17.9702 22.5969C18.9588 20.7207 20.831 17.2593 21.6628 15.1134C22.5039 12.9436 22.3046 10.5704 20.5839 8.84973C19.6472 7.91298 18.4632 7.36552 17.2381 7.20605Z" fill="#FA5F17"/>
<path fill-rule="evenodd" clip-rule="evenodd" d="M14.1194 12.9573C14.1194 10.8154 15.8547 9.08008 17.9967 9.08008C20.1386 9.08008 21.8739 10.8154 21.8739 12.9573C21.8739 15.0993 20.1386 16.8346 17.9967 16.8346C15.8547 16.8346 14.1194 15.0979 14.1194 12.9573Z" fill="#E1DAE7"/>
<path fill-rule="evenodd" clip-rule="evenodd" d="M14.1194 12.9571C14.1194 11.049 15.4973 9.46252 17.3137 9.13965C19.1287 9.46252 20.5066 11.0491 20.5066 12.9571C20.5066 14.8651 19.1287 16.4517 17.3137 16.7746C15.4973 16.4517 14.1194 14.8651 14.1194 12.9571Z" fill="#EBE6EF"/>
<path fill-rule="evenodd" clip-rule="evenodd" d="M20.8601 15.5715C20.1505 16.3462 19.1301 16.8338 17.9966 16.8338C16.8632 16.8338 15.8427 16.3462 15.1345 15.5715V15.3921C15.1345 12.8276 20.8601 12.8276 20.8601 15.3921V15.5715Z" fill="#FFB122"/>
<path fill-rule="evenodd" clip-rule="evenodd" d="M19.7904 16.3944C19.2368 16.6838 18.6213 16.8348 17.9966 16.8342C16.8632 16.8342 15.8427 16.3465 15.1345 15.5719V15.3925C15.1345 14.2711 16.2294 13.6399 17.4625 13.499C18.6955 13.6399 19.7904 14.271 19.7904 15.3925V16.3944Z" fill="#FFC738"/>
<path fill-rule="evenodd" clip-rule="evenodd" d="M17.9968 10.4873C18.8817 10.4873 19.5992 11.2048 19.5992 12.0898C19.5992 12.9747 18.8817 13.6909 17.9968 13.6909C17.1118 13.6909 16.3943 12.9734 16.3943 12.0898C16.3943 11.2062 17.1118 10.4873 17.9968 10.4873Z" fill="#F6B4A8"/>
<path fill-rule="evenodd" clip-rule="evenodd" d="M17.4626 13.5983C16.8408 13.3791 16.3943 12.7851 16.3943 12.0889C16.3943 11.3927 16.8407 10.7974 17.4626 10.5781C18.0845 10.7974 18.5296 11.3913 18.5296 12.0889C18.5296 12.7865 18.0845 13.3791 17.4626 13.5983Z" fill="#F9C9C0"/>
<path fill-rule="evenodd" clip-rule="evenodd" d="M2.07056 4.67531C2.07056 3.48741 3.03388 2.52539 4.22179 2.52539C5.4097 2.52539 6.37171 3.48741 6.37171 4.67531C6.37171 5.86322 5.4097 6.82655 4.22179 6.82655C3.03388 6.82655 2.07056 5.86322 2.07056 4.67531Z" fill="#E1DAE7"/>
<path fill-rule="evenodd" clip-rule="evenodd" d="M2.07056 4.67459C2.07056 3.64746 2.79206 2.78777 3.75538 2.5752C4.72007 2.78777 5.44021 3.64746 5.44021 4.67459C5.44021 5.70171 4.72003 6.5614 3.75538 6.77398C2.79206 6.5614 2.07056 5.70302 2.07056 4.67459Z" fill="#EBE6EF"/>
<path d="M3.21304 4.68978C3.13598 4.55558 3.18248 4.38416 3.31537 4.30709C3.44957 4.23003 3.621 4.27653 3.69806 4.40942L3.91462 4.78414L4.78893 3.90983C4.89787 3.80089 5.07595 3.80089 5.18625 3.90983C5.21247 3.93598 5.23327 3.96704 5.24746 4.00124C5.26166 4.03544 5.26896 4.07211 5.26896 4.10914C5.26896 4.14617 5.26166 4.18284 5.24746 4.21704C5.23327 4.25124 5.21247 4.28231 5.18625 4.30845L4.05281 5.43922C4.03551 5.45647 4.01695 5.47109 3.99435 5.48441C3.92986 5.52138 3.85332 5.53124 3.78156 5.5118C3.7098 5.49237 3.64869 5.44524 3.61167 5.38077L3.21304 4.68978Z" fill="#08A88A"/>
<path d="M3.93993 12.7192C3.93993 12.5637 4.06617 12.4375 4.2216 12.4375C4.37704 12.4375 4.50332 12.5637 4.50332 12.7192V13.3198C4.50332 13.83 4.92056 14.2473 5.43079 14.2473H7.16746L7.03992 14.1742C6.90571 14.0971 6.85921 13.9257 6.93628 13.7915C7.01334 13.6573 7.18476 13.6108 7.31896 13.6878L8.33278 14.2738C8.55201 14.3867 8.55201 14.6711 8.33278 14.7854L7.31896 15.37C7.18476 15.4471 7.01334 15.4006 6.93628 15.2664C6.85921 15.1322 6.90571 14.9607 7.03992 14.8837L7.16746 14.8106H5.43079C4.60964 14.8106 3.93993 14.1409 3.93993 13.3197V12.7191V12.7192ZM11.6241 22.3977C11.4899 22.3207 11.4434 22.1493 11.5204 22.015C11.5975 21.8808 11.7689 21.8343 11.9031 21.9114L12.9169 22.4961C13.1375 22.6104 13.1375 22.8947 12.9169 23.009L11.9031 23.5936C11.7689 23.6707 11.5975 23.6242 11.5204 23.49C11.4434 23.3558 11.4899 23.1843 11.6241 23.1073L11.753 23.0342H2.65373C-0.0994267 23.0342 -0.423614 19.2779 1.81265 18.4966C1.95881 18.4461 2.11828 18.5231 2.17007 18.6693C2.22056 18.8155 2.1435 18.9749 1.99734 19.0267C0.356339 19.5994 0.527761 22.4708 2.65373 22.4708H11.7529L11.624 22.3977H11.6241ZM3.76457 17.8003C3.82874 17.7634 3.90491 17.7535 3.97638 17.7726C4.04786 17.7918 4.10882 17.8386 4.1459 17.9026C4.22296 18.0368 4.17778 18.2082 4.04357 18.2853L3.91467 18.3597H8.21578C10.2634 18.3597 10.4919 15.6995 9.05423 14.9913C8.91473 14.9223 8.85759 14.7535 8.92668 14.6153C8.94292 14.5822 8.96554 14.5526 8.99326 14.5282C9.02097 14.5038 9.05323 14.4852 9.08818 14.4733C9.12312 14.4615 9.16007 14.4567 9.19688 14.4591C9.2337 14.4616 9.26967 14.4713 9.30271 14.4878C11.2732 15.4591 10.8533 18.9218 8.21582 18.9218H3.91471L4.04362 18.9962C4.17782 19.0732 4.22301 19.2446 4.14595 19.3788C4.06889 19.513 3.89882 19.5582 3.76462 19.4812L2.75081 18.8965C2.53026 18.7836 2.53026 18.4992 2.75081 18.385L3.76462 17.8003L3.76457 17.8003Z" fill="#9992A3"/>
</svg>
